<svg width="197" height="25" viewBox="0 0 197 25" fill="none" xmlns="http://www.w3.org/2000/svg">
<path d="M0.226074 2.50832C0.226074 1.421 1.10752 0.539551 2.19485 0.539551H32.7108C33.7981 0.539551 34.6796 1.421 34.6796 2.50832V22.196C34.6796 23.2834 33.7981 24.1648 32.7108 24.1648H2.19485C1.10752 24.1648 0.226074 23.2834 0.226074 22.196V2.50832Z" fill="#00579F"/>
<path d="M14.9664 16.3713H13.0183L14.2368 8.83716H16.1848L14.9664 16.3713Z" fill="white"/>
<path d="M22.0275 9.02144C21.6433 8.869 21.0339 8.70068 20.2803 8.70068C18.3565 8.70068 17.0018 9.72655 16.9935 11.1932C16.9775 12.2753 17.9634 12.8764 18.7008 13.2372C19.4545 13.6059 19.7107 13.8465 19.7107 14.1752C19.703 14.6799 19.1016 14.9126 18.5408 14.9126C17.763 14.9126 17.3463 14.7926 16.713 14.5118L16.4564 14.3914L16.1838 16.0827C16.6407 16.2908 17.4825 16.4755 18.3565 16.4836C20.4005 16.4836 21.7313 15.4736 21.7471 13.9107C21.7548 13.053 21.2342 12.3958 20.1119 11.8588C19.4305 11.5141 19.0132 11.2816 19.0132 10.9289C19.0212 10.6083 19.3662 10.2799 20.1353 10.2799C20.7686 10.2638 21.2339 10.416 21.5864 10.5683L21.7626 10.6483L22.0275 9.02144Z" fill="white"/>
<path d="M24.6178 13.7022C24.7782 13.2694 25.3955 11.5942 25.3955 11.5942C25.3874 11.6103 25.5556 11.1534 25.6518 10.8729L25.788 11.5221C25.788 11.5221 26.1569 13.3255 26.237 13.7022C25.9325 13.7022 25.0025 13.7022 24.6178 13.7022ZM27.0224 8.83716H25.5156C25.0509 8.83716 24.6979 8.9733 24.4974 9.46227L21.6038 16.3711H23.6478C23.6478 16.3711 23.9843 15.4413 24.0567 15.241C24.2809 15.241 26.2694 15.241 26.5578 15.241C26.6138 15.5055 26.7903 16.3711 26.7903 16.3711H28.594L27.0224 8.83716Z" fill="white"/>
<path d="M11.3909 8.83716L9.48312 13.9747L9.27465 12.9327C8.92193 11.7305 7.81575 10.4242 6.5813 9.77471L8.32879 16.3633H10.3888L13.4509 8.83716H11.3909Z" fill="white"/>
<path d="M7.7115 8.83716H4.57723L4.54517 8.98939C6.99009 9.6146 8.60932 11.1217 9.27459 12.9331L8.59323 9.47047C8.48106 8.98928 8.13633 8.85303 7.7115 8.83716Z" fill="#FAA61A"/>
<mask id="mask0_77_2027" style="mask-type:alpha" maskUnits="userSpaceOnUse" x="40" y="0" width="36" height="25">
<path d="M40.5862 0.539551H75.0397V24.1648H40.5862V0.539551Z" fill="#016FD0"/>
</mask>
<g mask="url(#mask0_77_2027)">
<path d="M40.5862 2.50832C40.5862 1.421 41.4676 0.539551 42.555 0.539551H73.0709C74.1582 0.539551 75.0397 1.421 75.0397 2.50832V22.196C75.0397 23.2834 74.1582 24.1648 73.0709 24.1648H42.555C41.4676 24.1648 40.5862 23.2834 40.5862 22.196V2.50832Z" fill="#016FD0"/>
<path d="M47.2878 18.6134V13.1931H53.0269L53.6427 13.9958L54.2788 13.1931H75.1102V18.2396C75.1102 18.2396 74.5654 18.608 73.9354 18.6134H62.4006L61.7063 17.759V18.6134H59.4314V17.1549C59.4314 17.1549 59.1207 17.3585 58.4488 17.3585H57.6745V18.6134H54.2301L53.6152 17.7935L52.9909 18.6134H47.2878Z" fill="white"/>
<path d="M40.5862 9.10802L41.8804 6.09082H44.1185L44.853 7.78093V6.09082H47.6352L48.0725 7.31238L48.4963 6.09082H60.9857V6.70494C60.9857 6.70494 61.6422 6.09082 62.7212 6.09082L66.7736 6.10498L67.4954 7.77297V6.09082H69.8237L70.4645 7.04895V6.09082H72.8142V11.5111H70.4645L69.8504 10.5499V11.5111H66.4296L66.0856 10.6567H65.1659L64.8275 11.5111H62.5076C61.5792 11.5111 60.9857 10.9095 60.9857 10.9095V11.5111H57.4879L56.7936 10.6567V11.5111H43.787L43.4432 10.6567H42.5265L42.1851 11.5111H40.5862V9.10802Z" fill="white"/>
<path d="M42.3376 6.75879L40.592 10.8173H41.7285L42.0506 10.0046H43.923L44.2434 10.8173H45.4049L43.661 6.75879H42.3376ZM42.9834 7.70333L43.5542 9.12349H42.411L42.9834 7.70333Z" fill="#016FD0"/>
<path d="M45.5249 10.8164V6.75781L47.1399 6.76381L48.0792 9.3805L48.996 6.75781H50.5981V10.8164H49.5834V7.82585L48.5079 10.8164H47.6181L46.5395 7.82585V10.8164H45.5249Z" fill="#016FD0"/>
<path d="M51.2932 10.8164V6.75781H54.6042V7.66566H52.3185V8.35988H54.5508V9.21432H52.3185V9.93525H54.6042V10.8164H51.2932Z" fill="#016FD0"/>
<path d="M55.1907 6.75879V10.8174H56.2053V9.3755H56.6325L57.8491 10.8174H59.089L57.754 9.3221C58.3019 9.27587 58.8671 8.8056 58.8671 8.07549C58.8671 7.22143 58.1967 6.75879 57.4486 6.75879H55.1907ZM56.2053 7.66663H57.3652C57.6434 7.66663 57.8458 7.88427 57.8458 8.09385C57.8458 8.36348 57.5835 8.52107 57.3802 8.52107H56.2053V7.66663Z" fill="#016FD0"/>
<path d="M60.3187 10.8164H59.2827V6.75781H60.3187V10.8164Z" fill="#016FD0"/>
<path d="M62.775 10.8164H62.5514C61.4694 10.8164 60.8125 9.96396 60.8125 8.80379C60.8125 7.61496 61.4621 6.75781 62.8284 6.75781H63.9499V7.71905H62.7874C62.2328 7.71905 61.8405 8.15192 61.8405 8.8138C61.8405 9.59979 62.289 9.92991 62.9352 9.92991H63.2023L62.775 10.8164Z" fill="#016FD0"/>
<path d="M64.9836 6.75879L63.238 10.8173H64.3745L64.6966 10.0046H66.569L66.8894 10.8173H68.0509L66.307 6.75879H64.9836ZM65.6294 7.70333L66.2002 9.12349H65.057L65.6294 7.70333Z" fill="#016FD0"/>
<path d="M68.1682 10.8164V6.75781H69.4582L71.1053 9.30778V6.75781H72.12V10.8164H70.8717L69.1829 8.19968V10.8164H68.1682Z" fill="#016FD0"/>
<path d="M47.9824 17.9194V13.8608H51.2934V14.7687H49.0077V15.4629H51.24V16.3173H49.0077V17.0383H51.2934V17.9194H47.9824Z" fill="#016FD0"/>
<path d="M64.2053 17.9194V13.8608H67.5163V14.7687H65.2306V15.4629H67.4522V16.3173H65.2306V17.0383H67.5163V17.9194H64.2053Z" fill="#016FD0"/>
<path d="M51.4222 17.9194L53.0342 15.9151L51.3838 13.8608H52.6621L53.645 15.1308L54.6313 13.8608H55.8595L54.2308 15.8901L55.8458 17.9194H54.5677L53.6133 16.6694L52.6821 17.9194H51.4222Z" fill="#016FD0"/>
<path d="M55.9651 13.8613V17.9199H57.0064V16.6382H58.0745C58.9782 16.6382 59.6632 16.1588 59.6632 15.2264C59.6632 14.454 59.1259 13.8613 58.2063 13.8613H55.9651ZM57.0064 14.7792H58.1312C58.4232 14.7792 58.6319 14.9581 58.6319 15.2465C58.6319 15.5173 58.4242 15.7137 58.1279 15.7137H57.0064V14.7792Z" fill="#016FD0"/>
<path d="M60.1045 13.8608V17.9194H61.1191V16.4776H61.5464L62.7629 17.9194H64.0029L62.6678 16.4242C63.2157 16.3779 63.7809 15.9076 63.7809 15.1775C63.7809 14.3235 63.1106 13.8608 62.3624 13.8608H60.1045ZM61.1191 14.7687H62.279C62.5572 14.7687 62.7596 14.9863 62.7596 15.1959C62.7596 15.4655 62.4974 15.6231 62.294 15.6231H61.1191V14.7687Z" fill="#016FD0"/>
<path d="M67.9867 17.9194V17.0383H70.0174C70.3178 17.0383 70.4479 16.8759 70.4479 16.6978C70.4479 16.5272 70.3182 16.3547 70.0174 16.3547H69.0998C68.3021 16.3547 67.8579 15.8688 67.8579 15.1392C67.8579 14.4884 68.2647 13.8608 69.45 13.8608H71.4259L70.9986 14.774H69.2898C68.9631 14.774 68.8625 14.9454 68.8625 15.1091C68.8625 15.2774 68.9868 15.4629 69.2364 15.4629H70.1976C71.0868 15.4629 71.4726 15.9673 71.4726 16.6277C71.4726 17.3378 71.0426 17.9194 70.1492 17.9194H67.9867Z" fill="#016FD0"/>
<path d="M71.7099 17.9194V17.0383H73.7405C74.041 17.0383 74.1711 16.8759 74.1711 16.6978C74.1711 16.5272 74.0414 16.3547 73.7405 16.3547H72.8229C72.0253 16.3547 71.5811 15.8688 71.5811 15.1392C71.5811 14.4884 71.9879 13.8608 73.1731 13.8608H75.1086L74.7218 14.774H73.0129C72.6862 14.774 72.5857 14.9454 72.5857 15.1091C72.5857 15.2774 72.71 15.4629 72.9595 15.4629H73.9208C74.8099 15.4629 75.1957 15.9673 75.1957 16.6277C75.1957 17.3378 74.7658 17.9194 73.8723 17.9194H71.7099Z" fill="#016FD0"/>
</g>
<path d="M80.9456 2.50832C80.9456 1.421 81.827 0.539551 82.9143 0.539551H113.43C114.518 0.539551 115.399 1.421 115.399 2.50832V22.196C115.399 23.2834 114.518 24.1648 113.43 24.1648H82.9143C81.827 24.1648 80.9456 23.2834 80.9456 22.196V2.50832Z" fill="#232342"/>
<path d="M95.9578 24.1646L115.399 18.5044V22.1958C115.399 23.2832 114.518 24.1646 113.431 24.1646H95.9578Z" fill="#FD6020"/>
<path fill-rule="evenodd" clip-rule="evenodd" d="M110.66 10.0002C111.73 10.0002 112.318 10.4762 112.318 11.3753C112.371 12.0629 111.89 12.6446 111.248 12.7504L112.692 14.7073H111.569L110.339 12.8033H110.232V14.7073H109.323V10.0002H110.66ZM110.232 12.1686H110.5C111.088 12.1686 111.355 11.9042 111.355 11.4282C111.355 11.0051 111.088 10.7407 110.5 10.7407H110.232V12.1686ZM106.168 14.7073H108.735V13.9139H107.077V12.6446H108.681V11.8513H107.077V10.7936H108.735V10.0002H106.168V14.7073ZM103.494 13.1735L102.264 10.0002H101.301L103.28 14.813H103.761L105.74 10.0002H104.777L103.494 13.1735ZM92.6374 12.3802C92.6374 13.7024 93.707 14.813 95.044 14.813C95.4718 14.813 95.8462 14.7073 96.2205 14.5486V13.4908C95.9531 13.8082 95.5788 14.0197 95.1509 14.0197C94.2953 14.0197 93.6 13.3851 93.6 12.5389V12.4331C93.5465 11.5869 94.2418 10.8464 95.0974 10.7936C95.5253 10.7936 95.9531 11.0051 96.2205 11.3224V10.2647C95.8996 10.0531 95.4718 10.0002 95.0974 10.0002C93.707 9.89445 92.6374 11.0051 92.6374 12.3802ZM90.9795 11.7984C90.4447 11.5869 90.2843 11.4811 90.2843 11.2167C90.3378 10.8993 90.6052 10.6349 90.926 10.6878C91.1934 10.6878 91.4608 10.8464 91.6748 11.058L92.1561 10.4233C91.7817 10.106 91.3004 9.89445 90.8191 9.89445C90.0704 9.84157 89.4286 10.4233 89.3751 11.1638V11.2167C89.3751 11.8513 89.6425 12.2215 90.4982 12.486C90.7121 12.5389 90.926 12.6446 91.14 12.7504C91.3004 12.8562 91.4074 13.0148 91.4074 13.2264C91.4074 13.5966 91.0865 13.9139 90.7656 13.9139H90.7121C90.2843 13.9139 89.9099 13.6495 89.7495 13.2793L89.1612 13.8611C89.4821 14.4428 90.1239 14.7602 90.7656 14.7602C91.6213 14.813 92.3165 14.1784 92.37 13.3322V13.1735C92.3165 12.5389 92.0491 12.2215 90.9795 11.7984ZM87.8777 14.7073H88.7869V10.0002H87.8777V14.7073ZM83.6528 10.0002H84.9898H85.2572C86.5407 10.0531 87.5568 11.1109 87.5034 12.3802C87.5034 13.0677 87.1825 13.7024 86.6477 14.1784C86.1664 14.5486 85.5781 14.7602 84.9898 14.7073H83.6528V10.0002ZM84.8294 13.914C85.2572 13.9668 85.7385 13.8082 86.0594 13.5437C86.3803 13.2264 86.5407 12.8033 86.5407 12.3273C86.5407 11.9042 86.3803 11.4811 86.0594 11.1638C85.7385 10.8993 85.2572 10.7407 84.8294 10.7936H84.562V13.914H84.8294Z" fill="white"/>
<path fill-rule="evenodd" clip-rule="evenodd" d="M98.9483 9.89111C97.6114 9.89111 96.4883 10.9489 96.4883 12.324C96.4883 13.6462 97.5579 14.7568 98.9483 14.8097C100.339 14.8626 101.408 13.7519 101.462 12.3769C101.408 11.0018 100.339 9.89111 98.9483 9.89111V9.89111Z" fill="#FD6020"/>
<path d="M121.305 2.50832C121.305 1.421 122.187 0.539551 123.274 0.539551H153.79C154.877 0.539551 155.759 1.421 155.759 2.50832V22.196C155.759 23.2834 154.877 24.1648 153.79 24.1648H123.274C122.187 24.1648 121.305 23.2834 121.305 22.196V2.50832Z" fill="black"/>
<path fill-rule="evenodd" clip-rule="evenodd" d="M138.778 17.4285C137.605 18.4408 136.084 19.0518 134.421 19.0518C130.711 19.0518 127.704 16.0095 127.704 12.2566C127.704 8.50374 130.711 5.46143 134.421 5.46143C136.084 5.46143 137.605 6.07248 138.778 7.08471C139.951 6.07248 141.473 5.46143 143.135 5.46143C146.845 5.46143 149.853 8.50374 149.853 12.2566C149.853 16.0095 146.845 19.0518 143.135 19.0518C141.473 19.0518 139.951 18.4408 138.778 17.4285Z" fill="#ED0006"/>
<path fill-rule="evenodd" clip-rule="evenodd" d="M138.778 17.4285C140.222 16.1822 141.138 14.3276 141.138 12.2566C141.138 10.1857 140.222 8.33107 138.778 7.08471C139.951 6.07248 141.473 5.46143 143.135 5.46143C146.845 5.46143 149.852 8.50374 149.852 12.2566C149.852 16.0095 146.845 19.0518 143.135 19.0518C141.473 19.0518 139.951 18.4408 138.778 17.4285Z" fill="#F9A000"/>
<path fill-rule="evenodd" clip-rule="evenodd" d="M138.778 7.08472C140.223 8.33108 141.138 10.1857 141.138 12.2566C141.138 14.3276 140.223 16.1821 138.778 17.4285C137.334 16.1821 136.418 14.3276 136.418 12.2566C136.418 10.1857 137.334 8.33108 138.778 7.08472Z" fill="#FF5E00"/>
<path d="M161.666 2.50832C161.666 1.421 162.547 0.539551 163.634 0.539551H194.15C195.238 0.539551 196.119 1.421 196.119 2.50832V22.196C196.119 23.2834 195.238 24.1648 194.15 24.1648H163.634C162.547 24.1648 161.666 23.2834 161.666 22.196V2.50832Z" fill="black"/>
<path d="M181.447 12.4771C181.447 16.23 178.439 19.2723 174.729 19.2723C171.02 19.2723 168.012 16.23 168.012 12.4771C168.012 8.7242 171.02 5.68188 174.729 5.68188C178.439 5.68188 181.447 8.7242 181.447 12.4771Z" fill="#ED0006"/>
<path d="M190.161 12.4771C190.161 16.23 187.153 19.2723 183.444 19.2723C179.734 19.2723 176.726 16.23 176.726 12.4771C176.726 8.7242 179.734 5.68188 183.444 5.68188C187.153 5.68188 190.161 8.7242 190.161 12.4771Z" fill="#0099DF"/>
<path fill-rule="evenodd" clip-rule="evenodd" d="M179.087 7.30518C180.531 8.55154 181.447 10.4061 181.447 12.4771C181.447 14.548 180.531 16.4026 179.087 17.649C177.642 16.4026 176.727 14.548 176.727 12.4771C176.727 10.4061 177.642 8.55154 179.087 7.30518Z" fill="#6C6BBD"/>
</svg>
