<?xml version="1.0" standalone="no"?>
<!DOCTYPE svg PUBLIC "-//W3C//DTD SVG 20010904//EN"
 "http://www.w3.org/TR/2001/REC-SVG-20010904/DTD/svg10.dtd">
<svg version="1.0" xmlns="http://www.w3.org/2000/svg"
 width="700.000000pt" height="700.000000pt" viewBox="0 0 700.000000 700.000000"
 preserveAspectRatio="xMidYMid meet">
<metadata>
Created by potrace 1.14, written by Peter Selinger 2001-2017
</metadata>
<g transform="translate(0.000000,700.000000) scale(0.100000,-0.100000)"
fill="#000000" stroke="none">
<path d="M3432 6548 c-7 -7 -12 -8 -12 -4 0 5 -7 3 -15 -4 -10 -9 -15 -9 -15
-1 0 12 -27 10 -50 -4 -8 -5 -19 -10 -25 -10 -5 -1 -9 -7 -7 -13 2 -10 -3 -10
-17 -3 -10 6 -22 7 -26 3 -5 -4 -5 -2 -1 5 4 7 13 10 20 7 8 -3 17 0 21 5 3 6
11 9 16 6 5 -4 9 -1 9 4 0 14 -17 14 -25 1 -9 -15 -27 -12 -19 3 6 10 4 10 -7
0 -7 -7 -17 -13 -22 -13 -4 0 -5 6 -1 13 6 10 4 10 -7 0 -7 -7 -17 -13 -22
-13 -4 0 -5 6 -1 13 5 8 2 8 -9 -2 -14 -11 -20 -11 -34 0 -10 7 -15 9 -11 5 4
-5 0 -15 -10 -23 -16 -13 -15 -13 3 -6 24 10 55 10 55 0 0 -4 0 -9 0 -12 0 -3
-8 -1 -18 4 -10 5 -24 6 -33 1 -17 -10 -33 -2 -42 20 -4 10 -6 8 -6 -7 -1 -12
2 -23 7 -26 4 -2 2 -2 -5 -1 -7 2 -15 -1 -18 -7 -4 -5 -11 -6 -17 -3 -19 12
-58 13 -58 2 0 -6 6 -8 13 -5 7 3 13 -3 13 -12 0 -10 -6 -18 -13 -18 -7 0 -10
4 -7 8 2 4 -5 7 -16 6 -12 -1 -18 -7 -16 -14 3 -7 1 -15 -3 -17 -7 -5 -8 10
-2 49 1 6 6 3 11 -5 5 -8 10 -10 10 -4 0 6 -7 17 -16 24 -8 8 -14 9 -13 4 2
-5 -1 -20 -5 -33 -6 -18 -10 -20 -17 -10 -6 11 -15 9 -41 -10 l-33 -24 20 23
c16 19 17 22 4 17 -9 -3 -21 -1 -26 4 -6 6 -10 4 -10 -5 0 -8 5 -12 10 -9 6 3
7 2 4 -3 -3 -5 -24 -8 -46 -6 -25 3 -38 8 -34 15 3 6 1 7 -6 3 -6 -4 -8 -12
-5 -18 4 -6 -1 -8 -15 -3 -12 3 -21 2 -21 -3 0 -6 12 -9 27 -7 25 2 26 2 8
-11 -13 -10 -22 -11 -32 -3 -15 13 -18 -2 -3 -17 7 -7 6 -11 -4 -11 -10 0 -13
9 -10 30 3 28 2 28 -10 11 -8 -10 -12 -24 -9 -30 2 -7 0 -15 -6 -18 -6 -4 -7
-14 -4 -24 3 -9 3 -14 -1 -11 -4 4 -9 19 -12 35 -3 22 -2 25 6 14 5 -8 10 -10
10 -5 -1 6 -7 19 -15 29 -8 10 -11 24 -8 30 4 6 -1 5 -10 -3 -18 -15 -23 -26
-7 -16 10 6 15 -10 10 -30 -1 -5 -3 -16 -3 -22 0 -7 -3 -11 -5 -8 -3 3 -13 -2
-23 -11 -16 -14 -17 -14 -14 3 1 10 8 17 15 15 6 -1 8 2 4 9 -4 8 -3 9 4 5 7
-4 12 -2 12 3 0 14 -17 14 -25 0 -4 -6 -13 -8 -21 -5 -7 3 -16 1 -20 -5 -4 -6
-12 -5 -22 3 -11 9 -10 5 4 -17 10 -16 14 -26 7 -22 -6 4 -13 4 -16 0 -2 -5
-3 -3 -1 4 4 19 -8 23 -23 8 -8 -8 -28 -15 -44 -15 -16 0 -29 -4 -29 -9 0 -5
12 -8 26 -5 22 4 23 3 12 -10 -9 -10 -15 -11 -20 -2 -7 10 -13 -5 -9 -26 0 -5
-4 -8 -10 -8 -6 0 -8 9 -4 20 5 15 3 18 -9 14 -9 -3 -12 -12 -9 -22 4 -10 -3
-7 -16 8 -12 14 -19 19 -15 11 5 -10 3 -13 -8 -9 -8 4 -15 0 -15 -7 0 -10 5
-11 17 -5 12 6 17 5 17 -5 0 -8 -5 -11 -10 -8 -5 3 -13 0 -17 -7 -6 -9 -10 -7
-15 9 -3 11 -11 21 -17 21 -7 0 -7 -4 -1 -12 13 -18 10 -43 -4 -44 -7 -1 -20
-2 -29 -3 -8 0 -12 -5 -9 -11 3 -5 1 -10 -5 -10 -7 0 -9 7 -6 16 3 9 6 18 6
20 0 3 4 3 9 0 4 -3 16 1 26 8 17 13 17 14 -8 14 -17 0 -29 -7 -32 -19 -3 -10
-11 -17 -18 -15 -7 1 -9 1 -4 -1 12 -7 8 -20 -8 -27 -8 -3 -14 -2 -14 2 3 19
-3 21 -23 8 -13 -7 -31 -12 -40 -11 -10 2 -15 -2 -12 -10 3 -7 1 -16 -5 -20
-6 -3 -11 2 -12 12 0 11 -3 13 -6 5 -2 -6 -10 -10 -16 -6 -7 3 -3 -1 7 -10 10
-8 22 -13 26 -11 5 3 10 -2 13 -10 4 -9 1 -12 -7 -9 -8 3 -16 -4 -19 -16 -4
-17 -9 -20 -24 -12 -10 5 -25 7 -33 4 -11 -3 -12 -2 -4 8 9 9 17 9 33 1 17
-10 21 -9 21 3 0 23 -13 26 -47 9 -20 -9 -30 -20 -26 -29 3 -10 0 -12 -10 -9
-8 4 -17 -1 -21 -10 -5 -13 -1 -15 17 -10 16 4 14 1 -8 -12 -16 -9 -36 -16
-43 -15 -7 2 -11 -3 -10 -10 3 -12 -2 -12 -46 0 -18 5 -18 4 -5 -10 7 -9 17
-14 21 -11 4 2 5 -3 2 -12 -6 -14 -8 -14 -19 2 -11 15 -15 15 -29 4 -14 -12
-16 -11 -13 5 1 11 6 26 11 34 7 12 6 13 -4 3 -16 -15 -22 -42 -15 -62 4 -11
9 -10 20 5 8 10 15 14 15 7 0 -6 -5 -15 -10 -18 -8 -5 -7 -12 2 -23 10 -14 10
-15 -2 -4 -18 15 -34 16 -24 0 4 -7 3 -8 -4 -4 -7 4 -12 1 -12 -6 0 -9 -2 -10
-8 -2 -8 14 -62 15 -62 2 0 -5 4 -7 9 -4 5 3 11 -1 15 -9 3 -8 2 -14 -2 -14
-22 4 -33 -4 -47 -33 -11 -25 -13 -27 -9 -8 4 19 3 22 -5 10 -6 -8 -11 -11
-11 -6 0 5 -6 3 -13 -3 -8 -6 -18 -7 -22 -3 -5 4 -5 2 -2 -5 9 -15 -3 -44 -15
-37 -6 4 -5 -2 1 -14 7 -14 8 -23 1 -27 -10 -6 -11 -5 -14 14 -2 16 -26 37
-26 23 0 -7 5 -12 11 -12 5 0 7 -5 4 -10 -5 -8 -11 -8 -20 0 -10 8 -15 8 -21
-1 -4 -8 -3 -9 5 -5 6 4 14 0 17 -8 3 -9 10 -13 15 -10 5 3 6 -2 3 -11 -6 -14
-8 -14 -21 2 -12 15 -14 15 -10 2 6 -18 -10 -39 -27 -39 -6 0 -3 7 7 14 10 8
14 17 9 20 -6 3 -13 -1 -16 -10 -3 -8 -10 -12 -16 -9 -6 3 -7 -1 -4 -9 3 -9
11 -16 18 -17 6 0 1 -4 -12 -10 -13 -5 -20 -13 -17 -19 4 -6 2 -9 -4 -8 -5 2
-16 -6 -25 -17 -15 -20 -15 -20 -11 3 2 12 0 20 -5 17 -9 -5 -6 -37 4 -53 3
-5 -1 -9 -9 -9 -8 0 -12 4 -9 9 3 4 -2 5 -10 2 -9 -3 -16 -1 -16 5 0 6 -4 11
-8 11 -4 0 -8 -11 -8 -24 0 -14 4 -22 8 -20 5 3 5 10 2 16 -4 7 -2 8 5 4 6 -4
9 -11 6 -16 -3 -4 -2 -10 2 -13 5 -2 3 -3 -3 -1 -6 1 -24 -6 -39 -16 -16 -11
-33 -16 -38 -13 -6 3 -7 1 -3 -5 4 -7 2 -12 -3 -12 -6 0 -10 -6 -9 -12 2 -7
-3 -12 -10 -10 -10 2 -10 -2 -2 -18 6 -11 15 -20 20 -20 6 0 10 -5 10 -11 0
-5 -5 -7 -10 -4 -6 3 -13 -1 -16 -10 -4 -9 -13 -14 -20 -11 -7 3 -16 1 -19 -4
-4 -6 0 -10 7 -10 7 0 5 -5 -6 -11 -15 -9 -16 -13 -5 -20 10 -6 11 -9 2 -10
-7 -1 -19 -2 -25 -3 -7 -1 -19 2 -25 7 -8 6 -13 6 -13 0 0 -6 10 -15 23 -21
12 -6 16 -11 9 -11 -7 -1 -10 -6 -6 -13 4 -7 3 -8 -5 -4 -6 4 -9 11 -6 16 7
11 -22 7 -32 -5 -4 -4 -3 -6 2 -2 6 3 16 -3 23 -13 10 -17 9 -18 -6 -13 -15 6
-15 5 -3 -11 8 -9 10 -16 5 -15 -20 3 -35 -2 -29 -10 3 -5 1 -12 -4 -15 -5 -4
-13 -1 -17 5 -4 8 -3 9 5 5 6 -4 11 -4 10 1 -3 19 2 34 9 29 5 -3 9 1 9 9 0 8
-4 15 -9 15 -4 0 -8 -4 -8 -10 0 -5 -6 -8 -12 -6 -7 1 -10 1 -5 -1 4 -3 7 -9
7 -14 0 -6 -4 -8 -9 -5 -4 3 -8 -2 -8 -12 0 -33 -3 -43 -11 -38 -5 3 -9 -1 -9
-9 0 -13 3 -13 17 0 16 14 18 14 24 -1 4 -9 4 -19 1 -22 -3 -3 -5 0 -5 6 0 7
-5 12 -11 12 -6 0 -9 -7 -6 -14 4 -10 1 -13 -9 -9 -8 3 -20 0 -28 -6 -7 -6
-17 -7 -21 -3 -5 4 -5 2 -2 -5 4 -6 0 -18 -8 -27 -14 -13 -13 -15 5 -13 12 1
18 7 16 13 -3 7 2 18 10 24 11 10 14 10 14 1 0 -7 5 -9 12 -5 7 4 8 3 4 -4 -4
-6 -14 -8 -24 -5 -15 6 -15 5 -3 -10 9 -11 10 -17 2 -18 -6 -1 -16 -2 -23 -3
-6 0 -13 -7 -16 -14 -2 -8 2 -10 14 -5 12 4 15 3 10 -5 -9 -15 -36 -15 -36 0
0 6 -3 8 -7 4 -5 -4 1 -14 11 -22 15 -10 16 -14 5 -14 -8 0 -21 6 -28 13 -11
10 -12 9 -5 -3 13 -23 12 -49 -2 -54 -7 -3 -11 -16 -10 -29 2 -18 -1 -24 -11
-20 -9 4 -10 9 -3 18 14 16 0 28 -17 13 -11 -9 -11 -14 4 -30 17 -18 16 -19
-10 -14 -16 3 -25 1 -22 -5 4 -5 10 -7 14 -4 5 2 17 -5 27 -17 11 -12 13 -18
5 -13 -11 6 -13 4 -8 -8 4 -11 2 -14 -9 -10 -11 4 -12 9 -3 19 8 10 8 14 0 14
-6 0 -11 -3 -12 -7 0 -5 -2 -16 -4 -25 -2 -10 2 -16 7 -15 6 1 13 -5 15 -13 3
-9 1 -11 -4 -5 -4 6 -19 11 -33 13 -18 2 -21 0 -11 -6 11 -8 11 -11 0 -16 -8
-3 -5 -4 7 -1 24 6 52 -19 34 -30 -6 -4 -9 -1 -8 5 2 7 -10 13 -28 14 -24 1
-30 -3 -31 -19 0 -33 -7 -50 -23 -58 -11 -5 -9 -6 6 -4 18 4 21 0 18 -26 -2
-16 2 -37 9 -46 10 -14 10 -14 -4 -4 -9 7 -19 9 -23 5 -4 -4 -6 -1 -4 7 1 7
-3 15 -10 16 -8 3 -9 2 -1 -2 8 -4 3 -11 -12 -20 -13 -8 -16 -12 -6 -9 28 9
50 -4 36 -20 -6 -8 -8 -14 -3 -14 5 0 2 -4 -6 -10 -8 -5 -11 -12 -7 -16 3 -4
15 -1 24 7 16 13 17 12 5 -2 -7 -9 -23 -16 -37 -16 -21 0 -22 1 -9 14 8 8 12
18 9 23 -3 5 1 10 7 13 7 2 11 7 8 10 -3 3 -16 -3 -30 -14 -20 -15 -21 -18 -5
-12 20 6 20 6 1 -15 -11 -12 -15 -22 -10 -22 5 0 2 -4 -6 -10 -8 -5 -11 -13
-6 -17 5 -4 11 -2 13 5 3 6 9 12 15 12 6 0 6 -6 -2 -15 -6 -8 -8 -20 -4 -27 5
-7 -5 -5 -21 6 -17 10 -24 13 -17 5 15 -17 16 -43 0 -33 -7 4 -8 3 -4 -5 6 -9
11 -9 21 -1 10 8 13 4 12 -16 0 -18 -2 -22 -8 -13 -7 12 -10 12 -21 0 -7 -8
-8 -11 -3 -8 6 3 17 -3 24 -15 7 -11 8 -17 2 -14 -6 4 -18 3 -27 -2 -15 -8
-15 -10 0 -15 11 -5 15 -3 10 5 -4 7 -3 8 5 4 6 -4 9 -12 5 -17 -3 -5 0 -18 8
-27 12 -15 11 -16 -5 -3 -16 13 -18 12 -13 -12 2 -15 0 -29 -5 -32 -14 -9 -11
-23 6 -28 11 -3 10 -4 -2 -3 -11 1 -17 9 -16 20 1 12 -2 15 -9 8 -7 -7 -7 -16
0 -29 7 -13 6 -23 -2 -35 -7 -10 -15 -15 -18 -13 -3 3 -11 -2 -19 -12 -12 -14
-12 -16 0 -8 11 6 13 4 8 -8 -4 -10 0 -20 11 -26 16 -10 16 -10 0 -11 -9 0
-20 -5 -24 -12 -4 -6 -3 -9 2 -6 5 3 16 -1 23 -10 13 -14 12 -15 -8 -9 -14 3
-21 1 -18 -6 2 -7 13 -11 23 -9 16 2 17 1 4 -8 -13 -9 -13 -11 0 -20 8 -5 11
-10 6 -10 -6 0 -21 10 -35 23 -14 12 -20 15 -13 5 7 -9 9 -18 5 -20 -4 -3 -2
-3 5 -2 17 5 11 -27 -7 -42 -11 -9 -11 -11 3 -11 15 0 20 10 17 30 -1 5 3 6 8
2 6 -3 7 -13 4 -22 -5 -12 -3 -14 8 -8 12 8 12 6 0 -8 -7 -9 -17 -15 -21 -12
-4 3 -11 -3 -15 -13 -14 -31 -13 -39 4 -38 10 1 17 -8 18 -24 1 -14 0 -18 -3
-7 -6 20 -20 22 -30 5 -4 -7 -3 -8 4 -4 15 9 15 -9 1 -36 -6 -11 -7 -18 -1
-15 5 4 14 -5 21 -20 11 -24 11 -25 -5 -12 -16 13 -16 11 1 -21 18 -35 18 -35
-2 -17 -16 14 -20 14 -20 2 0 -8 3 -12 7 -10 4 2 12 -7 19 -22 11 -24 11 -25
-5 -12 -16 13 -16 12 -5 -9 7 -12 16 -20 21 -17 6 3 7 -1 4 -9 -3 -9 -10 -16
-16 -16 -5 0 -7 4 -4 8 3 5 -2 9 -11 9 -13 0 -12 -4 5 -17 25 -20 18 -34 -9
-19 -11 5 -19 7 -19 5 0 -3 9 -10 21 -16 15 -9 24 -8 37 2 15 12 16 11 3 -5
-8 -9 -11 -20 -7 -24 3 -3 -1 -15 -10 -24 -15 -17 -15 -21 2 -46 10 -16 19
-32 19 -38 1 -5 7 -9 14 -7 7 1 10 -2 6 -8 -5 -8 -12 -7 -23 2 -13 11 -15 10
-9 -4 3 -10 1 -20 -5 -24 -6 -4 -8 -3 -5 3 4 6 -3 19 -16 29 -22 19 -22 19 -5
-2 16 -18 16 -22 2 -36 -11 -11 -13 -18 -5 -23 6 -3 10 -3 9 2 -2 4 2 9 7 11
15 3 13 -21 -3 -33 -10 -8 -9 -11 8 -12 11 -1 18 2 15 8 -4 5 -1 9 4 9 13 0
14 -13 4 -24 -5 -4 -8 -20 -9 -34 0 -16 -6 -26 -13 -24 -7 1 -10 -2 -6 -8 5
-8 11 -7 21 1 10 8 14 8 14 0 0 -6 5 -11 11 -11 8 0 9 4 0 13 -6 8 -8 17 -4
20 3 4 0 13 -7 22 -11 13 -10 14 4 9 9 -3 16 -13 16 -21 0 -8 4 -12 9 -9 11 7
9 -13 -3 -33 -5 -8 -3 -16 5 -22 8 -5 10 -9 5 -9 -6 0 -1 -7 10 -16 15 -12 15
-15 2 -10 -9 2 -19 -2 -22 -10 -5 -12 4 -18 25 -16 3 1 6 -5 6 -12 0 -7 -6
-13 -13 -13 -7 0 -10 5 -7 11 3 6 3 8 -2 4 -4 -4 -15 -2 -24 4 -12 10 -12 7 2
-8 9 -11 14 -24 10 -29 -5 -4 -3 -5 3 -2 7 4 15 0 18 -9 3 -8 10 -12 16 -9 6
4 7 -1 3 -11 -5 -15 -7 -15 -15 0 -5 9 -14 16 -21 16 -8 0 -8 -3 2 -9 8 -5 11
-18 7 -32 -3 -13 -3 -18 0 -11 3 6 10 12 15 12 6 0 8 -4 5 -9 -3 -5 1 -14 9
-21 18 -15 20 -33 3 -27 -7 2 -12 10 -11 16 2 6 -2 11 -7 11 -6 0 -10 -7 -10
-15 0 -8 4 -15 8 -15 5 0 9 -7 9 -15 0 -9 -6 -14 -14 -11 -8 3 -11 1 -8 -4 4
-6 14 -9 22 -8 9 2 18 -3 21 -11 3 -8 0 -11 -7 -7 -6 4 -11 2 -11 -4 0 -6 -5
-8 -12 -4 -7 4 -8 3 -4 -4 5 -8 13 -9 25 -2 10 5 22 6 26 2 12 -11 -6 20 -23
41 -10 11 -11 17 -4 17 7 0 12 -4 12 -9 0 -4 12 -21 26 -36 15 -16 19 -25 10
-22 -9 4 -16 2 -16 -3 0 -5 -8 -7 -17 -4 -14 5 -15 4 -4 -4 8 -6 20 -8 28 -5
9 4 11 0 6 -13 -6 -17 -5 -17 10 -5 9 7 17 9 17 3 0 -15 -26 -22 -38 -10 -6 6
-12 5 -17 -4 -5 -7 -5 -10 0 -6 8 8 35 -15 35 -30 0 -6 -5 -12 -12 -14 -7 -3
-5 -7 6 -11 9 -4 15 -3 11 2 -9 15 15 25 28 12 9 -9 8 -11 -6 -5 -10 3 -17 3
-16 -2 4 -22 -2 -35 -13 -28 -7 5 -8 3 -2 -7 4 -8 9 -20 11 -28 2 -17 24 -32
35 -25 5 3 6 10 2 15 -3 5 -9 7 -14 4 -5 -3 -11 -1 -15 5 -12 19 24 10 38 -10
8 -11 16 -17 19 -14 3 3 4 -9 3 -27 -2 -17 -9 -35 -16 -40 -9 -6 -10 -9 -2 -9
6 0 15 5 18 10 3 6 12 10 18 9 9 0 9 -2 0 -6 -7 -2 -13 -9 -13 -14 0 -6 5 -7
12 -3 7 4 8 3 4 -5 -4 -6 -1 -14 8 -17 12 -5 13 -9 3 -19 -7 -7 -15 -11 -20
-8 -4 2 -7 0 -7 -5 0 -6 7 -13 16 -16 8 -3 12 -2 9 3 -3 5 0 13 7 17 7 4 10 4
6 -1 -4 -4 -3 -17 3 -28 7 -13 7 -17 1 -13 -6 3 -14 2 -17 -4 -4 -6 -1 -9 7
-8 7 2 12 -4 10 -12 -2 -8 0 -12 4 -8 4 4 18 -5 30 -20 24 -27 28 -36 25 -59
-1 -6 3 -14 8 -18 6 -3 8 -13 5 -23 -5 -14 -4 -15 5 -2 8 11 11 11 12 3 1 -7
2 -17 3 -23 1 -11 18 -12 26 -3 3 4 -1 3 -9 -2 -9 -5 -12 -4 -8 2 4 6 -2 22
-13 35 -17 23 -18 27 -4 44 14 18 15 18 4 -3 -6 -13 -7 -23 -2 -23 5 0 14 -12
20 -26 7 -14 17 -22 23 -18 6 3 4 -5 -6 -19 -11 -17 -22 -24 -33 -20 -9 3 -14
3 -11 -1 9 -10 50 -16 44 -6 -3 5 0 12 7 16 7 4 10 3 5 -1 -4 -5 1 -18 10 -29
15 -17 15 -19 1 -8 -9 7 -19 9 -22 4 -3 -5 6 -14 20 -21 31 -14 37 -14 28 1
-4 7 -3 8 4 4 6 -4 9 -13 6 -21 -4 -11 -12 -12 -31 -4 -14 5 -28 7 -31 5 -2
-3 7 -8 22 -12 14 -3 23 -10 20 -15 -3 -5 0 -8 8 -7 9 2 12 -7 11 -29 -2 -31
-1 -31 18 -12 10 10 25 19 31 18 10 0 10 -2 0 -6 -7 -2 -17 -13 -23 -24 -8
-16 -6 -21 16 -29 16 -6 23 -14 19 -22 -4 -7 -3 -8 4 -4 7 4 12 2 12 -4 0 -7
7 -10 15 -7 8 4 17 2 20 -4 4 -5 12 -6 18 -2 7 4 6 0 -2 -10 -14 -18 -36 -13
-25 5 4 7 2 8 -5 4 -9 -6 -9 -11 0 -22 11 -13 5 -19 -16 -14 -5 1 -6 -2 -2 -6
11 -11 38 -14 31 -3 -3 5 1 9 10 9 8 0 17 6 20 13 3 6 3 1 0 -12 -4 -14 -2
-21 4 -18 5 4 8 -4 6 -18 -1 -14 2 -27 7 -31 5 -3 6 -11 3 -17 -4 -7 -3 -8 1
-4 11 10 16 39 6 32 -4 -2 -8 2 -8 10 0 17 16 21 18 5 1 -5 3 -14 4 -20 1 -5
3 -13 4 -17 1 -5 6 -1 12 7 9 13 10 13 6 0 -2 -8 -10 -14 -16 -13 -17 4 -13
-14 5 -21 8 -3 12 -2 9 4 -3 6 -1 10 4 10 6 0 11 -7 11 -15 0 -8 5 -14 11 -12
6 1 14 -5 16 -13 4 -12 3 -12 -5 -1 -6 8 -12 9 -16 3 -8 -13 19 -23 41 -16 13
4 14 3 5 -3 -9 -7 -6 -13 12 -23 14 -7 23 -17 20 -21 -2 -5 -14 1 -24 11 -22
22 -40 26 -40 10 0 -5 3 -9 8 -9 20 3 32 -2 32 -15 0 -10 9 -14 28 -12 32 4
45 -1 36 -15 -4 -6 -11 -6 -19 1 -10 8 -15 8 -21 -1 -4 -8 -3 -9 4 -5 7 4 12
2 12 -3 0 -6 7 -11 15 -11 8 0 15 -5 15 -11 0 -5 -5 -7 -12 -3 -6 4 -8 3 -5
-4 8 -11 25 -11 44 1 6 4 14 3 18 -3 6 -10 -1 -14 -18 -11 -5 1 -5 -3 -2 -9 4
-6 13 -9 21 -6 7 3 16 0 20 -6 4 -7 3 -8 -4 -4 -7 4 -12 3 -12 -3 0 -6 -8 -8
-17 -5 -14 5 -15 4 -4 -4 8 -6 20 -8 27 -5 6 2 15 -1 19 -6 3 -6 11 -8 17 -5
7 4 8 2 4 -4 -4 -7 -2 -12 3 -12 6 0 11 -5 11 -12 0 -6 -10 -2 -23 10 -17 16
-26 18 -37 11 -13 -9 -13 -10 1 -6 18 6 51 -27 41 -39 -4 -5 2 -2 12 6 18 14
18 13 12 -10 -4 -14 -4 -20 1 -15 4 6 19 11 33 13 19 2 22 0 10 -8 -15 -10
-14 -10 23 -14 6 0 12 -7 12 -15 0 -8 8 -15 18 -17 21 -3 36 -14 20 -14 -5 0
-9 -10 -8 -23 1 -12 -3 -29 -9 -37 -10 -13 -9 -13 6 -1 10 7 16 17 13 21 -3 5
-1 11 5 15 5 3 10 1 10 -5 0 -6 5 -8 12 -4 7 5 8 3 2 -7 -13 -22 -13 -38 0
-33 7 3 21 -4 31 -16 10 -11 23 -20 29 -20 6 0 5 4 -2 9 -8 4 -14 12 -14 17 0
5 -5 8 -11 6 -7 -2 -8 0 -4 4 4 4 13 9 21 10 12 2 16 -9 17 -48 0 -22 19 -24
19 -3 0 8 5 15 11 15 5 0 8 -4 5 -9 -7 -11 3 -41 14 -41 5 0 6 10 4 23 l-5 22
10 -22 c5 -12 19 -27 30 -33 12 -6 21 -15 21 -21 0 -5 -10 -1 -22 11 -41 38
-28 14 19 -36 26 -27 42 -41 34 -32 -7 9 -9 23 -5 29 5 8 3 9 -6 4 -9 -6 -11
-4 -5 5 5 9 4 11 -3 6 -8 -5 -10 -2 -6 9 4 9 7 15 8 13 1 -2 10 -14 21 -27 11
-14 14 -21 8 -17 -19 10 -16 1 4 -15 11 -10 14 -10 9 -1 -4 6 -2 12 3 12 6 0
11 -7 11 -15 0 -8 -5 -15 -11 -15 -5 0 -7 -5 -4 -11 5 -6 12 -4 21 8 14 17 15
17 9 -4 -3 -12 -1 -24 4 -28 7 -4 8 1 4 12 -6 15 -4 16 9 6 8 -7 17 -11 20 -8
2 3 22 -4 43 -15 22 -11 32 -20 23 -20 -9 0 -20 -5 -24 -12 -5 -8 0 -9 14 -6
12 4 25 2 28 -4 3 -5 12 -7 20 -4 21 8 28 -14 10 -32 -10 -11 -16 -12 -16 -4
0 7 5 12 10 12 6 0 10 5 10 12 0 8 -6 7 -16 -4 -17 -17 -10 -43 8 -32 23 15
58 12 58 -3 0 -12 -3 -13 -14 -4 -11 9 -16 9 -22 -1 -4 -7 -4 -10 1 -6 4 4 14
1 22 -7 10 -11 20 -12 32 -6 13 7 18 6 18 -4 0 -8 -4 -12 -8 -9 -4 2 -11 -1
-15 -7 -4 -7 -3 -9 3 -6 6 4 14 0 17 -8 4 -11 14 -14 36 -10 23 4 30 2 30 -10
0 -10 -5 -13 -12 -9 -7 4 -9 3 -5 -1 12 -14 57 -17 57 -4 0 6 -7 8 -17 4 -15
-5 -16 -4 -5 7 11 11 16 10 26 -5 7 -9 19 -17 25 -17 8 0 10 -8 6 -20 -3 -11
-2 -20 4 -20 5 0 11 8 13 18 3 14 5 13 10 -6 3 -12 2 -20 -2 -17 -5 3 -12 1
-15 -5 -4 -6 -1 -9 7 -8 7 2 12 -3 10 -10 -1 -8 2 -11 8 -7 5 3 21 -5 35 -19
14 -14 25 -21 25 -17 0 5 7 12 16 15 8 3 12 2 9 -4 -3 -5 3 -17 14 -27 11 -9
17 -21 14 -26 -4 -6 -1 -7 6 -3 9 6 9 12 -3 25 -19 20 -20 31 -5 31 5 0 7 -4
4 -10 -3 -5 -2 -10 3 -10 18 0 21 -29 6 -45 -9 -8 -12 -15 -7 -15 5 0 14 5 21
12 15 15 16 3 2 -22 -8 -16 -8 -18 4 -14 9 3 15 9 14 12 -2 23 4 24 15 2 9
-17 10 -27 3 -33 -14 -9 25 -4 41 6 8 5 11 1 8 -13 -6 -30 -15 -41 -27 -34 -7
4 -8 2 -4 -5 4 -6 11 -9 16 -6 10 6 52 -50 43 -59 -3 -3 -2 -6 4 -6 6 0 14 7
17 16 4 10 2 13 -6 8 -7 -5 -8 -3 -3 6 5 8 4 11 -2 7 -6 -4 -14 1 -18 11 -13
28 -14 42 -4 48 5 3 9 2 8 -3 -1 -4 -1 -15 0 -23 1 -13 3 -13 12 0 9 13 10 13
6 -1 -3 -9 0 -22 6 -28 6 -6 13 -30 14 -54 5 -62 6 -66 12 -65 19 2 31 -3 26
-11 -3 -6 3 -8 15 -6 11 2 23 -1 26 -7 4 -7 2 -8 -4 -4 -7 4 -12 1 -12 -8 0
-8 5 -18 10 -21 8 -5 8 -11 1 -19 -8 -9 -7 -13 3 -13 14 0 16 14 3 33 -4 7 -1
14 6 17 9 3 13 -3 13 -19 -1 -13 3 -23 8 -23 17 1 25 -25 14 -45 -11 -20 -10
-20 7 -6 10 8 16 10 12 4 -4 -7 0 -17 8 -24 18 -15 20 -33 3 -27 -7 2 -12 10
-11 16 2 6 -1 11 -6 11 -6 0 -9 -9 -8 -19 0 -11 5 -17 9 -15 5 3 7 -6 4 -20
-3 -19 -1 -23 11 -19 10 4 11 8 3 13 -8 5 -7 9 3 13 11 4 15 0 12 -14 -2 -11
2 -22 10 -26 8 -3 12 -9 9 -15 -3 -5 -11 -3 -17 6 -11 13 -14 13 -31 1 -11 -8
-15 -15 -10 -15 6 0 16 6 23 12 11 11 13 10 8 -4 -4 -11 -2 -17 5 -15 7 1 13
-4 14 -10 1 -7 2 -17 3 -23 0 -5 5 -10 10 -10 10 0 9 19 -2 38 -5 7 -4 12 2
12 10 0 15 -14 12 -32 0 -5 4 -8 10 -8 8 0 8 -5 -1 -15 -7 -8 -9 -15 -5 -15 4
0 2 -7 -5 -15 -7 -9 -10 -18 -6 -22 3 -3 6 -1 6 6 0 7 5 9 12 5 6 -4 8 -3 5 2
-3 6 -1 16 5 24 8 12 9 12 4 -2 -3 -11 3 -23 16 -32 l21 -15 -21 2 c-11 0 -18
5 -15 11 3 5 1 6 -5 2 -8 -5 -9 -13 -2 -25 6 -12 5 -22 -3 -30 -9 -10 -9 -12
2 -9 7 2 16 -3 19 -11 3 -10 0 -12 -11 -8 -11 4 -14 2 -11 -8 5 -11 10 -12 24
-2 13 7 16 15 10 23 -6 6 -6 15 -2 19 4 5 2 5 -4 2 -6 -3 -11 0 -11 8 0 10 4
12 12 5 7 -5 16 -6 21 -2 4 4 3 0 -4 -10 -11 -14 -9 -19 10 -32 12 -9 17 -16
10 -16 -7 0 -10 -5 -7 -10 4 -6 10 -8 14 -6 4 3 8 -1 8 -9 0 -11 -4 -12 -14
-4 -9 9 -13 8 -13 0 0 -7 -5 -9 -12 -5 -10 6 -10 5 -1 -7 10 -12 10 -18 0 -29
-10 -12 -9 -12 5 -1 10 7 15 17 12 22 -3 5 2 6 10 3 9 -3 14 -11 13 -17 -1 -7
4 -11 11 -9 8 1 11 -2 7 -8 -5 -8 -11 -8 -20 0 -10 8 -15 8 -21 -1 -5 -8 -3
-9 6 -4 10 6 12 4 7 -9 -4 -10 -3 -15 3 -11 6 3 10 -1 10 -9 0 -10 -7 -13 -21
-11 -12 3 -18 1 -15 -3 4 -4 11 -7 14 -7 4 0 13 -4 21 -9 10 -6 12 -5 7 2 -4
7 -2 12 3 12 15 0 14 -13 -1 -29 -11 -11 -10 -14 0 -18 9 -4 10 -8 2 -18 -8
-10 -7 -13 4 -11 9 1 19 6 23 11 5 4 1 5 -7 0 -8 -5 -12 -5 -8 0 4 4 3 14 -4
22 -8 11 -7 12 6 7 9 -3 16 -9 17 -13 6 -45 5 -51 -8 -47 -7 3 -13 3 -13 0 0
-2 11 -9 24 -14 17 -6 23 -15 21 -34 -2 -14 1 -24 6 -20 5 3 6 10 3 16 -4 6 1
17 11 25 18 12 11 18 -17 15 -3 -1 -9 5 -12 13 -5 15 11 31 21 21 4 -3 0 -6
-8 -6 -8 -1 2 -9 21 -20 19 -11 29 -19 22 -20 -7 0 -10 -5 -6 -12 5 -7 3 -8
-5 -3 -10 6 -11 3 -2 -14 7 -11 14 -21 17 -21 3 0 2 5 -1 10 -8 12 5 13 24 1
11 -7 10 -11 -5 -20 -11 -6 -15 -11 -10 -11 5 0 18 8 28 17 15 13 21 14 31 4
9 -10 8 -11 -8 -6 -18 6 -18 5 -2 -5 9 -6 22 -8 29 -4 7 4 8 3 4 -4 -4 -7 -2
-12 3 -12 6 0 11 7 11 15 0 8 -4 15 -10 15 -5 0 -10 5 -10 12 0 6 8 4 19 -6
11 -10 17 -25 15 -34 -5 -14 -4 -14 6 1 13 20 31 23 26 5 -1 -7 -1 -10 1 -5 3
4 9 5 14 1 14 -8 11 3 -6 19 -12 13 -11 15 9 13 17 -1 22 -6 20 -24 -1 -12 2
-20 6 -17 5 3 6 13 3 22 -4 11 -3 14 5 9 8 -4 10 -2 6 7 -3 8 2 21 10 30 8 8
12 18 8 23 -4 5 2 2 13 -6 11 -8 24 -19 28 -25 4 -6 7 -2 5 9 -2 10 3 21 11
24 8 2 11 0 8 -5 -3 -5 3 -9 14 -9 19 0 18 1 -3 18 -25 19 -43 24 -33 9 3 -5
1 -12 -4 -15 -16 -10 -20 8 -6 27 8 12 15 14 20 7 3 -5 11 -8 16 -4 6 3 3 12
-8 21 -17 13 -16 13 5 3 12 -6 22 -7 22 -3 0 4 5 1 11 -7 8 -11 9 -9 4 10 -4
14 -7 27 -7 30 0 21 4 30 13 30 8 0 8 -4 2 -12 -6 -9 -5 -22 3 -38 8 -15 14
-19 14 -10 0 9 -5 21 -11 27 -8 8 -8 13 0 17 6 4 11 2 11 -5 0 -7 2 -10 5 -7
10 9 -17 58 -28 51 -6 -4 -7 -1 -3 6 6 9 13 8 29 -6 12 -9 17 -12 11 -4 -7 7
-9 21 -7 32 4 15 9 17 27 8 19 -9 19 -9 4 4 -22 17 -23 31 -3 23 13 -4 13 -2
5 14 -6 11 -6 21 -1 24 5 4 12 0 15 -6 2 -7 4 -2 3 12 -1 15 3 24 10 23 8 -2
10 4 6 14 -4 10 -2 14 4 10 9 -5 11 32 3 41 -9 8 -3 29 12 40 20 15 15 34 -6
26 -7 -3 -16 2 -19 10 -4 9 -1 15 6 13 7 -1 11 3 10 10 -2 7 4 10 12 6 14 -5
14 -7 0 -17 -13 -9 -11 -11 12 -12 16 -1 22 1 15 3 -19 7 -4 23 16 17 14 -5
14 -4 2 4 -8 6 -18 8 -22 6 -4 -3 -8 -1 -8 5 0 5 5 13 11 16 7 5 4 14 -8 28
-18 21 -18 21 1 7 18 -14 19 -13 14 7 -3 12 -3 22 1 21 21 -2 41 4 41 13 0 6
-6 9 -13 6 -8 -3 -20 -1 -28 5 -11 8 -10 9 5 4 14 -5 17 -2 12 9 -5 13 -2 14
15 4 11 -6 23 -8 27 -5 3 3 -1 6 -9 6 -10 1 -8 5 5 15 11 8 15 15 9 15 -6 0
-14 7 -17 16 -3 8 -2 12 4 9 6 -3 11 -1 11 4 1 6 2 17 3 24 0 6 7 13 14 13 6
1 16 2 21 3 4 0 6 12 3 26 -2 14 -7 23 -11 21 -4 -3 -7 4 -8 14 -1 11 2 22 8
25 5 3 6 -1 3 -9 -4 -9 0 -18 9 -22 9 -3 13 -12 11 -19 -3 -7 0 -16 7 -21 8
-5 10 -3 4 6 -4 7 -2 16 6 21 11 7 11 9 1 9 -7 0 -10 5 -6 12 4 6 3 8 -2 5 -5
-3 -10 3 -10 13 0 14 3 16 13 8 9 -7 18 -7 30 3 15 12 16 12 10 -4 -4 -11 -3
-16 4 -12 5 4 7 16 3 27 -3 11 -2 18 3 15 5 -3 9 3 9 13 0 10 -6 16 -13 13 -7
-3 -10 -10 -6 -17 3 -6 2 -7 -2 -3 -16 14 -14 36 3 30 10 -4 13 -2 8 5 -5 8
-1 10 11 5 16 -6 16 -5 4 10 -12 15 -12 17 4 11 13 -5 16 -4 11 4 -4 7 -2 12
4 12 6 0 9 4 6 9 -7 11 13 9 34 -4 12 -7 13 -6 3 6 -14 18 -10 55 6 52 6 -2
11 2 11 7 0 6 5 10 11 10 6 0 9 -7 6 -15 -4 -8 -3 -16 1 -19 4 -2 9 6 10 20 1
13 -4 24 -11 25 -6 0 -2 4 11 10 13 5 21 13 18 18 -3 5 1 14 8 20 9 7 17 8 20
2 11 -18 41 -5 39 17 -2 16 1 20 15 15 9 -4 21 -11 25 -17 6 -7 7 -5 4 5 -7
20 11 39 28 33 7 -3 16 -1 20 5 4 7 0 8 -11 4 -13 -5 -15 -3 -9 8 8 12 6 12
-8 0 -11 -9 -17 -10 -17 -2 0 6 3 11 8 12 4 0 15 2 24 4 10 2 22 -4 28 -13 5
-10 10 -12 10 -5 0 7 -9 18 -20 25 -11 7 -20 17 -20 22 0 4 7 3 15 -4 16 -13
39 -4 29 12 -5 7 -2 8 6 3 17 -11 60 -13 54 -4 -2 4 5 11 17 14 19 7 20 7 2
21 -10 8 -13 13 -6 12 6 -2 11 2 11 7 0 6 -4 9 -10 7 -5 -1 -7 2 -3 8 5 8 11
7 21 -1 11 -9 14 -8 14 2 0 11 2 11 9 0 5 -8 17 -16 25 -17 9 -1 14 2 10 7 -3
5 2 12 10 15 20 8 21 20 1 22 -8 1 -22 3 -30 4 -8 1 -12 5 -9 10 3 5 10 6 15
2 18 -11 59 -12 52 -1 -4 6 0 8 10 4 12 -4 17 -1 17 11 0 15 2 15 10 2 8 -13
10 -13 10 1 0 9 7 22 15 29 12 10 16 9 21 -4 3 -9 10 -16 16 -16 5 0 7 4 3 9
-3 5 -1 12 5 16 5 3 15 15 21 27 9 16 8 19 -3 13 -7 -4 -3 3 9 16 18 19 25 21
35 11 11 -11 10 -12 -3 -7 -10 4 -20 2 -24 -4 -3 -6 -1 -11 5 -11 6 0 9 -4 5
-9 -3 -5 0 -13 6 -17 7 -4 9 -3 5 4 -3 6 6 20 21 33 16 12 20 19 11 16 -10 -3
-19 1 -23 11 -3 9 -3 13 1 9 4 -4 13 1 21 11 14 16 14 16 9 -1 -5 -15 -2 -16
14 -7 11 6 20 13 20 16 0 3 -4 2 -10 -1 -5 -3 -7 0 -4 9 3 8 12 12 20 9 8 -3
11 -10 7 -17 -3 -6 3 -3 14 7 11 9 23 14 28 10 4 -5 5 -3 1 4 -7 13 13 53 27
53 4 0 3 -10 -3 -22 -10 -21 -10 -22 3 -5 8 10 13 27 10 37 -3 12 0 20 6 20 7
0 9 -6 5 -13 -4 -6 -4 -9 1 -5 4 4 16 3 26 -3 15 -7 17 -6 13 6 -3 8 -10 12
-16 9 -5 -3 -2 9 7 27 22 43 21 43 29 24 3 -9 2 -14 -3 -11 -5 3 -11 -1 -15
-9 -3 -8 0 -17 6 -21 7 -5 8 -2 3 6 -6 10 -4 12 8 7 12 -5 15 0 12 24 -2 16 0
27 5 24 4 -3 11 1 14 7 3 7 4 4 1 -8 -3 -13 0 -21 7 -21 9 0 13 13 12 34 -1
19 2 30 8 27 5 -3 7 -12 5 -18 -3 -7 -1 -19 4 -27 5 -8 9 -9 10 -4 6 40 5 55
-2 55 -5 0 -9 4 -9 9 0 6 12 6 32 0 43 -12 45 -12 22 6 -18 15 -18 15 -1 29
20 16 51 11 40 -7 -3 -6 -1 -7 6 -3 6 4 9 11 6 16 -3 4 2 13 10 20 12 10 13
16 3 28 -10 12 -10 14 -1 8 18 -10 53 -16 52 -8 -1 4 -1 14 0 22 1 13 3 13 12
0 9 -12 10 -12 5 3 -3 10 -6 21 -6 23 0 3 -6 2 -12 -2 -10 -5 -10 -3 0 7 11
12 14 12 22 -1 9 -13 10 -13 11 0 1 8 1 19 0 23 -1 5 8 6 19 2 12 -4 20 -2 20
5 0 6 6 8 13 4 6 -4 5 1 -4 12 -9 10 -19 26 -23 34 -6 12 -5 12 6 -1 14 -16
43 -14 32 2 -3 6 0 16 6 24 6 8 8 20 4 27 -6 10 -5 11 8 1 8 -7 17 -12 19 -10
2 1 -4 -5 -15 -14 -14 -13 -16 -18 -6 -24 9 -5 11 -4 6 3 -10 16 6 15 24 0 12
-11 12 -10 1 4 -10 14 -11 18 -1 18 8 0 11 11 8 30 -3 17 -1 33 4 36 5 3 6 10
3 15 -4 5 -2 9 3 9 6 0 13 -7 16 -16 3 -8 2 -13 -2 -10 -4 2 -8 -4 -9 -14 -1
-11 2 -22 7 -25 4 -2 7 3 6 13 0 9 5 16 11 15 7 -2 12 3 10 10 -1 6 4 11 11 9
8 -1 11 2 6 9 -5 9 -2 10 9 6 9 -3 19 -1 23 5 4 7 3 8 -4 4 -7 -4 -12 -2 -12
3 0 6 4 11 9 11 5 0 8 11 7 25 -3 22 0 24 23 20 14 -3 21 -3 14 1 -7 3 -9 13
-6 22 3 11 2 13 -4 6 -11 -15 -40 -13 -40 3 0 9 4 10 13 2 14 -12 29 5 19 21
-3 6 1 7 9 4 9 -3 14 -9 11 -14 -2 -4 3 -16 11 -26 15 -19 15 -19 6 0 -6 12
-6 29 -2 42 5 12 6 25 2 29 -3 3 1 3 10 0 19 -8 31 38 14 56 -6 7 3 3 21 -9
42 -29 50 -28 17 3 -15 14 -22 25 -16 25 6 0 18 -7 26 -16 13 -13 16 -13 16
-1 0 8 6 20 14 27 15 12 11 39 -8 53 -6 4 1 5 16 3 20 -3 25 -1 21 10 -3 8 -9
11 -14 8 -5 -3 -6 2 -3 11 6 14 8 14 21 -2 13 -16 14 -16 9 -1 -2 9 2 22 10
28 8 7 14 17 14 23 0 7 -4 7 -12 -1 -7 -7 -16 -12 -22 -12 -5 0 -1 6 9 14 23
17 51 10 35 -9 -5 -6 -6 -16 -2 -20 4 -5 1 -5 -5 -1 -18 10 -16 1 2 -14 12
-10 14 -8 10 9 -2 11 0 23 5 26 5 3 6 13 3 22 -4 11 -3 14 5 9 8 -5 10 -1 5
10 -4 11 -3 15 5 10 6 -3 13 -2 16 3 8 12 -23 8 -32 -5 -4 -5 -14 -10 -22 -12
-8 -1 -5 6 9 16 23 19 23 20 5 30 -10 6 -14 12 -7 12 6 0 15 -4 18 -10 3 -5
13 -10 22 -10 13 0 13 2 2 17 -13 15 -12 15 11 3 l25 -13 -20 23 -20 23 21
-11 c21 -11 34 -7 34 11 0 5 -7 7 -15 4 -8 -4 -17 -1 -21 5 -5 7 -3 8 5 4 8
-5 11 -2 9 9 -2 10 4 20 12 22 12 4 12 3 1 -5 -9 -7 -10 -12 -2 -16 6 -4 12
-2 12 3 3 26 4 30 12 37 4 4 7 2 7 -4 0 -16 16 -15 18 1 0 6 4 27 7 46 4 22 3
31 -4 26 -17 -10 -13 1 6 16 9 8 14 9 10 3 -3 -6 0 -11 7 -11 8 0 11 9 8 25
-3 15 -7 19 -12 12 -5 -8 -9 -8 -13 2 -3 8 1 15 9 16 8 1 20 3 28 4 8 1 15 4
14 7 0 3 1 9 2 14 1 4 3 13 4 20 1 6 8 11 15 9 7 -1 10 2 6 8 -3 5 -2 10 3 10
12 0 10 40 -3 41 -5 0 -11 -5 -14 -12 -2 -7 1 -9 9 -4 9 6 9 3 1 -13 -10 -18
-41 -22 -41 -5 0 3 7 2 16 -1 11 -4 14 -1 9 13 -6 21 18 46 36 35 7 -4 9 -3 5
4 -3 5 -3 12 1 15 5 2 3 3 -3 1 -7 -1 -10 5 -7 17 3 10 9 19 14 19 5 0 5 7 2
17 -4 11 -3 14 5 9 7 -4 12 -5 12 -1 0 3 -10 10 -22 15 l-23 9 23 0 c13 1 20
5 17 11 -4 6 -11 7 -17 4 -7 -4 -8 -2 -4 4 5 9 13 9 26 2 13 -7 21 -7 25 0 6
10 5 11 -15 14 -5 0 -10 5 -9 9 0 5 -8 16 -18 24 -10 8 -1 5 20 -7 21 -12 41
-20 44 -16 4 3 2 6 -3 6 -5 0 -10 9 -11 20 -1 11 2 18 6 16 4 -3 8 4 8 15 2
18 0 19 -14 7 -15 -12 -15 -11 -4 10 9 17 16 21 25 13 9 -8 13 -7 13 4 0 8 -4
12 -9 9 -4 -3 -8 0 -8 7 0 8 -5 7 -17 -2 -16 -13 -17 -12 -5 3 8 9 11 21 8 27
-3 5 5 8 18 7 17 -2 23 1 19 10 -3 8 -9 12 -13 9 -10 -6 -7 66 3 83 5 7 14 9
20 6 7 -4 9 -4 5 1 -4 4 -3 14 2 21 16 18 20 53 8 60 -6 4 -8 2 -4 -4 10 -17
-8 -21 -29 -6 -20 15 -14 18 33 16 12 -1 22 3 22 9 0 6 -4 7 -10 4 -5 -3 -10
-2 -10 4 0 18 20 23 26 7 3 -9 11 -16 17 -16 5 0 2 9 -8 20 -20 22 -29 50 -16
50 4 0 7 14 7 30 0 28 -10 36 -38 31 -15 -2 -8 8 13 20 17 9 20 8 14 -3 -5 -7
-5 -10 0 -6 4 4 14 3 22 -4 9 -7 7 0 -4 20 -10 17 -19 27 -21 22 -2 -6 -9 -10
-15 -10 -6 0 -1 10 11 23 12 13 19 27 15 30 -3 4 2 7 13 8 16 0 14 2 -6 11
-14 6 -28 10 -32 10 -5 -1 -8 3 -8 8 0 13 13 13 26 0 6 -6 15 -6 24 0 13 8 12
10 -3 10 -10 0 -20 6 -23 14 -6 16 12 56 30 68 8 5 7 8 -1 8 -7 0 -18 10 -24
23 -11 20 -11 21 5 8 9 -8 19 -11 23 -7 3 3 1 6 -5 6 -7 0 -12 5 -12 11 0 5 5
7 10 4 16 -10 11 1 -7 16 -9 8 -14 9 -11 4 4 -6 -2 -11 -12 -12 -18 -2 -18 -1
-2 16 13 13 20 15 31 7 12 -9 12 -8 1 11 -12 18 -17 20 -30 10 -13 -10 -13
-10 -2 5 9 11 10 18 2 23 -5 3 -10 11 -10 16 0 6 7 3 16 -5 8 -9 21 -16 27
-16 7 0 6 4 -3 10 -13 9 -13 11 0 20 13 9 12 10 -4 8 -10 -2 -21 3 -23 10 -3
8 1 10 11 6 12 -5 15 -2 10 10 -4 10 -1 16 7 16 7 0 9 3 6 6 -4 4 -13 1 -22
-6 -18 -15 -19 -1 -1 22 7 10 17 14 21 10 5 -4 5 -2 1 5 -4 7 -14 9 -24 6 -15
-6 -15 -4 2 15 11 12 16 25 13 29 -4 3 -7 1 -7 -6 0 -7 -4 -10 -10 -6 -5 3 -6
13 -3 22 5 12 3 14 -7 8 -9 -6 -11 -4 -5 5 6 10 4 12 -8 7 -9 -3 -19 -1 -23 5
-5 7 -2 8 6 3 10 -6 12 -4 6 10 -5 15 -4 16 9 5 9 -8 15 -9 15 -2 0 6 -8 16
-17 21 -16 9 -16 10 -2 11 18 0 33 -26 23 -41 -3 -5 0 -9 5 -9 14 0 14 37 1
45 -8 5 -7 12 2 23 10 12 10 14 1 8 -8 -4 -13 -2 -13 4 0 6 -4 9 -9 5 -6 -3
-15 3 -21 14 -7 13 -7 22 0 26 5 3 10 11 10 17 0 6 -6 6 -15 -2 -11 -9 -19
-10 -26 -3 -8 8 -6 11 6 10 10 -1 20 4 23 12 3 8 0 11 -6 7 -6 -3 -14 -1 -18
5 -4 8 -3 9 4 5 7 -4 12 -2 12 3 0 6 -5 11 -12 11 -6 0 -8 3 -4 7 4 4 18 -6
31 -22 13 -17 24 -24 25 -17 0 6 -4 12 -9 12 -5 0 -12 7 -15 16 -4 11 -2 15 7
11 8 -3 14 1 14 8 0 7 -6 11 -12 9 -7 -3 -17 2 -24 10 -7 8 -20 12 -28 9 -11
-4 -14 -2 -9 6 9 13 37 11 48 -4 5 -7 8 -7 8 0 0 6 -10 21 -21 35 -11 14 -18
20 -15 14 3 -7 0 -14 -7 -17 -8 -3 -12 10 -13 47 -1 33 1 44 6 31 4 -11 6 -27
5 -35 -2 -10 4 -16 17 -16 17 0 18 2 3 12 -12 9 -13 13 -3 17 10 4 10 6 1 6
-7 1 -13 9 -13 19 0 27 -11 34 -29 19 -14 -11 -14 -10 -2 6 8 10 20 16 27 13
7 -3 16 -1 19 5 4 5 1 8 -7 7 -8 -2 -12 4 -10 15 3 19 -13 23 -24 5 -5 -7 -3
-8 6 -3 9 5 11 4 6 -4 -4 -6 -12 -9 -17 -5 -6 3 -8 8 -5 11 3 3 -2 12 -10 20
-15 15 -10 38 7 27 5 -3 6 -10 3 -16 -5 -7 -2 -8 6 -3 9 5 11 4 6 -3 -5 -8 -1
-10 9 -5 13 5 14 7 3 14 -11 7 -10 11 2 20 12 8 10 9 -9 4 -17 -5 -21 -4 -16
5 6 9 3 9 -12 2 -15 -9 -19 -7 -20 9 -1 10 2 21 8 24 5 4 6 -2 2 -12 -3 -10
-4 -16 -2 -13 35 42 42 52 29 45 -22 -14 -39 -15 -47 -3 -3 7 -1 8 5 4 7 -4
12 -2 12 3 0 10 -14 15 -33 12 -4 0 -6 5 -5 11 2 7 -4 11 -12 10 -8 -2 -11 0
-7 4 12 12 37 13 34 2 -1 -6 5 -13 13 -15 10 -3 11 -2 4 4 -6 4 -10 16 -8 26
1 10 -2 14 -8 10 -8 -4 -9 4 -5 25 8 38 0 62 -19 62 -20 0 -17 18 4 23 9 3 5
4 -9 4 -24 -1 -26 -3 -16 -24 5 -12 14 -20 19 -17 16 10 21 -28 4 -42 -9 -8
-12 -9 -6 -2 13 16 -17 48 -38 41 -14 -4 -14 -3 -3 5 8 6 11 17 8 25 -3 8 -1
19 4 24 12 12 1 43 -14 43 -7 0 -7 -4 1 -12 15 -15 15 -28 1 -28 -5 0 -8 4 -5
9 3 5 -1 14 -9 21 -8 7 -13 15 -11 19 3 4 1 13 -4 21 -6 10 -4 20 6 31 13 14
13 18 -1 29 -12 10 -18 11 -28 1 -9 -10 -8 -11 8 -6 15 5 16 4 6 -3 -11 -8
-11 -10 0 -15 10 -4 9 -6 -3 -6 -20 -1 -28 18 -16 42 12 24 0 41 -18 26 -10
-9 -14 -9 -14 0 0 6 7 14 15 17 14 6 13 8 -2 20 -17 13 -17 13 0 14 15 0 14 4
-9 25 -29 27 -43 33 -25 11 9 -10 8 -15 -2 -19 -10 -4 -13 3 -12 24 1 18 -2
26 -9 21 -19 -12 -33 -10 -33 4 0 17 14 18 19 2 3 -7 7 -5 11 6 4 10 3 15 -3
11 -14 -9 -12 8 3 25 6 7 1 6 -13 -3 -13 -10 -29 -17 -35 -17 -5 0 -3 5 5 10
8 5 11 10 6 10 -4 0 0 12 9 28 18 27 18 27 -1 10 -24 -21 -49 -9 -42 19 4 16
1 19 -18 17 -13 -1 -24 2 -24 8 0 6 6 8 13 5 6 -2 21 -1 32 4 17 6 17 8 3 8
-12 1 -16 7 -12 19 5 13 4 14 -4 3 -11 -15 -21 -4 -17 22 2 9 -1 15 -6 11 -5
-3 -9 0 -9 7 0 6 -8 9 -20 6 -11 -3 -23 0 -27 5 -4 7 -11 4 -20 -7 -7 -11 -13
-15 -13 -9 0 5 7 18 15 28 13 17 15 17 21 3 3 -9 12 -13 21 -10 13 5 12 8 -6
15 -12 4 -20 12 -16 17 3 5 1 12 -5 16 -6 4 -8 10 -6 14 3 4 -1 8 -9 8 -20 0
-19 -7 3 -23 15 -12 15 -13 1 -14 -20 0 -31 23 -22 48 6 14 4 15 -9 4 -13 -10
-15 -9 -10 13 2 15 0 25 -7 25 -7 0 -10 -4 -7 -8 2 -4 0 -14 -6 -22 -8 -13 -9
-12 -5 1 4 11 -3 21 -19 29 -29 16 -30 25 -6 39 15 9 15 10 -5 11 -13 0 -23 5
-23 10 0 6 -5 10 -11 10 -5 0 -8 -4 -5 -9 3 -5 0 -11 -8 -14 -8 -3 -13 1 -12
11 0 9 -5 16 -12 14 -10 -2 -10 2 0 17 10 16 14 17 25 5 18 -17 20 -17 20 1 0
8 -4 12 -8 9 -4 -2 -10 0 -14 5 -3 6 -12 8 -20 4 -8 -3 -15 0 -15 6 0 6 5 11
10 11 6 0 10 5 10 11 0 5 -4 7 -10 4 -5 -3 -10 -1 -10 4 0 15 -16 14 -32 -2
-11 -10 -16 -10 -29 3 -12 13 -13 19 -3 28 15 14 29 -2 18 -20 -5 -10 -4 -10
6 -1 9 9 10 16 3 25 -6 7 -9 21 -8 30 3 14 -1 16 -13 9 -21 -11 -62 19 -63 46
0 16 -1 16 -8 -2 -6 -16 -2 -24 23 -39 17 -11 38 -19 46 -18 11 2 9 -2 -4 -13
-11 -8 -25 -15 -30 -15 -6 0 -5 4 2 9 10 6 6 13 -15 26 -15 10 -33 18 -39 18
-13 0 -13 15 -1 35 5 7 4 12 -2 12 -6 0 -11 4 -11 10 0 5 8 7 18 4 13 -5 14
-4 3 4 -8 6 -24 8 -36 6 -18 -3 -24 3 -33 29 l-11 32 3 -35 c2 -19 1 -27 -1
-17 -2 9 -8 15 -12 12 -5 -2 -7 7 -6 20 2 13 0 24 -3 23 -4 -1 -23 6 -42 15
-19 8 -38 13 -42 11 -10 -6 2 27 15 44 5 6 7 12 3 12 -3 0 -15 -14 -25 -31
-11 -18 -22 -26 -25 -20 -4 6 -2 11 3 11 6 0 11 5 11 11 0 5 -4 7 -10 4 -6 -4
-7 1 -3 12 6 16 5 17 -12 3 -17 -14 -18 -13 -13 2 4 9 0 24 -8 35 -13 16 -13
16 -8 0 5 -13 2 -16 -10 -11 -9 3 -23 1 -31 -6 -12 -10 -14 -8 -10 8 2 11 -3
28 -11 39 -9 10 -13 12 -9 3 4 -8 0 -6 -9 4 -8 10 -13 23 -9 29 3 6 1 7 -5 3
-5 -3 -12 -3 -15 1 -4 9 0 -7 9 -34 5 -14 4 -15 -4 -4 -13 19 -40 22 -66 10
-18 -9 -19 -8 -4 3 9 7 25 19 35 26 10 7 13 10 7 8 -14 -7 -47 28 -37 38 5 4
1 6 -7 4 -9 -2 -14 3 -12 11 2 11 0 12 -11 3 -10 -9 -17 -9 -26 1 -10 9 -11 9
-6 -3 4 -11 -1 -16 -16 -17 -16 -2 -18 1 -9 12 9 10 7 13 -7 10 -10 -1 -17 -7
-16 -12 1 -5 -5 -10 -12 -10 -11 0 -12 4 -4 14 9 9 7 14 -5 19 -9 3 -16 11
-16 16 0 6 6 5 15 -2 10 -9 15 -9 15 -1 0 6 -5 11 -10 11 -7 0 -7 7 0 23 11
21 10 21 -4 3 -9 -11 -16 -16 -16 -11 0 5 -5 4 -12 -3 -15 -15 -28 -15 -28 -1
0 5 5 7 12 3 6 -4 8 -3 4 4 -3 5 0 12 6 15 7 2 0 4 -16 4 -19 0 -24 -2 -15 -8
17 -10 -1 -12 -26 -3 -13 6 -14 9 -3 16 9 6 5 7 -11 3 -15 -5 -21 -3 -17 3 4
7 -1 9 -14 7 -12 -2 -24 4 -30 16 -6 11 -15 17 -19 14 -5 -2 -21 7 -35 22 -17
16 -24 20 -20 9 3 -9 15 -21 25 -27 11 -5 19 -14 19 -20 0 -10 -16 1 -49 34
-14 14 -21 15 -26 6 -6 -8 -4 -10 6 -4 8 5 11 4 6 0 -4 -5 -18 -10 -30 -11
-12 -2 -16 0 -9 2 6 3 12 13 11 22 0 10 -3 12 -5 5 -3 -7 -12 -9 -20 -6 -7 3
-11 10 -7 17 4 6 -1 5 -10 -3 -18 -14 -23 -26 -8 -16 5 3 12 2 15 -3 2 -4 -10
-8 -29 -8 -24 0 -31 4 -27 14 3 10 7 11 12 2 5 -9 9 -9 14 -1 4 6 -1 14 -10
18 -10 4 -19 2 -22 -5 -2 -7 -9 -12 -15 -12 -7 1 -1 10 13 22 20 17 21 20 5
14 -11 -4 -27 -10 -35 -14 -8 -3 -4 4 10 16 l25 22 -29 -14 c-29 -15 -56 -12
-56 6 0 6 6 5 15 -2 10 -9 15 -9 15 -1 0 6 -5 11 -11 11 -5 0 -7 6 -3 13 6 10
4 10 -7 0 -7 -7 -17 -13 -22 -13 -4 0 -5 6 -1 13 6 9 4 9 -7 1 -16 -12 -29
-12 -48 0 -11 7 -13 5 -8 -7 3 -9 1 -19 -5 -23 -7 -4 -8 -3 -4 4 9 15 -6 16
-20 2 -16 -16 -40 16 -25 33 8 10 7 14 -4 14 -8 0 -12 -4 -9 -8 2 -4 0 -10 -6
-14 -5 -3 -10 0 -10 8 0 8 -7 17 -15 21 -12 4 -13 2 -5 -13 7 -14 6 -22 -5
-31 -11 -9 -15 -9 -15 -1 0 6 5 11 11 11 6 0 3 7 -5 16 -9 8 -13 20 -10 26 4
7 2 8 -4 4 -16 -10 -15 6 1 24 10 12 9 12 -4 2 -9 -6 -19 -8 -24 -4 -4 4 -3
-3 3 -14 6 -12 8 -25 4 -29 -4 -5 -2 -5 4 -2 6 3 11 0 11 -7 0 -11 -4 -12 -18
-3 -9 6 -15 17 -12 26 5 13 3 14 -8 4 -19 -18 -34 -16 -19 2 12 14 7 20 -14
16 -5 -1 -5 6 -2 16 6 14 5 15 -5 6 -10 -10 -9 -15 1 -28 9 -11 9 -15 1 -15
-7 0 -9 -5 -5 -12 5 -9 2 -9 -9 1 -20 16 -23 26 -4 15 7 -5 7 -1 -3 12 -22 29
-24 30 -17 11 5 -13 3 -17 -5 -14 -7 2 -21 0 -30 -4 -11 -6 -19 -5 -24 3 -4 6
-3 8 4 4 6 -3 13 -2 16 3 15 23 -15 19 -30 -4 -20 -31 -30 -26 -13 7 6 12 8
20 4 16 -5 -4 -14 -3 -22 3 -10 9 -13 8 -13 -1 0 -10 -3 -10 -15 0 -9 7 -18
10 -22 6 -3 -3 -1 -6 5 -6 6 0 9 -7 5 -16 -4 -10 -8 -12 -13 -5 -3 6 -15 13
-26 15 -10 3 -28 8 -39 12 -17 7 -18 6 -5 -8 8 -8 22 -14 30 -13 20 3 32 -4
24 -16 -4 -6 -11 -6 -20 2 -8 6 -14 8 -14 4 0 -4 -6 -3 -13 3 -7 6 -25 13 -41
16 -22 4 -27 2 -22 -10 3 -9 1 -12 -4 -9 -6 3 -10 12 -10 19 0 13 -72 17 -84
5 -4 -3 10 -5 29 -4 19 2 38 -2 42 -8 4 -6 1 -7 -7 -2 -10 6 -12 3 -7 -11 7
-18 6 -18 -8 1 -14 17 -17 18 -25 5 -5 -8 -10 -10 -10 -5 0 15 -62 18 -70 4
-5 -7 -9 -5 -13 6 -4 9 -3 14 1 11 10 -6 38 11 31 18 -3 3 -11 0 -17 -6z m-42
-18 c3 -1 8 -2 13 -1 4 0 7 -3 7 -7 0 -5 -16 -9 -35 -9 -33 0 -42 6 -29 19 5
5 28 4 44 -2z m-143 -22 c-3 -8 -6 -5 -6 6 -1 11 2 17 5 13 3 -3 4 -12 1 -19z
m517 7 c-4 -8 -8 -15 -10 -15 -2 0 -4 7 -4 15 0 8 4 15 10 15 5 0 7 -7 4 -15z
m97 -22 c12 -16 12 -17 -2 -6 -9 7 -20 9 -24 5 -5 -4 -5 -1 -1 6 9 16 11 15
27 -5z m-696 -13 c3 -5 1 -10 -4 -10 -6 0 -11 5 -11 10 0 6 2 10 4 10 3 0 8
-4 11 -10z m735 -16 c0 -8 -19 -13 -24 -6 -3 5 1 9 9 9 8 0 15 -2 15 -3z m50
-4 c0 -5 -5 -10 -11 -10 -5 0 -7 5 -4 10 3 6 8 10 11 10 2 0 4 -4 4 -10z
m-990 -14 c0 -2 -7 -7 -16 -10 -8 -3 -12 -2 -9 4 6 10 25 14 25 6z m1214 -7
c3 -3 -5 -5 -19 -5 -13 0 -22 3 -19 7 4 8 30 6 38 -2z m-1363 -56 c13 -16 12
-17 -3 -4 -10 7 -18 15 -18 17 0 8 8 3 21 -13z m-174 -8 c0 -8 -4 -12 -9 -9
-5 3 -6 10 -3 15 9 13 12 11 12 -6z m1787 -34 c4 -5 -3 -7 -14 -4 -23 6 -26
13 -6 13 8 0 17 -4 20 -9z m60 -6 c3 -8 1 -15 -4 -15 -6 0 -10 7 -10 15 0 8 2
15 4 15 2 0 6 -7 10 -15z m-1918 -20 c-1 -8 -5 -17 -8 -21 -5 -4 -4 16 1 34 3
9 9 -1 7 -13z m1962 -8 c9 -10 6 -13 -13 -13 -27 0 -33 11 -12 19 6 3 13 6 13
6 1 1 6 -5 12 -12z m117 -76 c-6 -5 -25 10 -25 20 0 5 6 4 14 -3 8 -7 12 -15
11 -17z m-2351 -6 c-4 -8 -10 -15 -16 -15 -5 0 -6 -5 -2 -12 5 -7 3 -8 -5 -4
-9 6 -8 13 5 27 21 23 25 24 18 4z m-47 -24 c0 -11 -5 -18 -9 -15 -4 3 -5 11
-1 19 7 21 12 19 10 -4z m2546 -31 c-2 -3 -13 6 -24 19 -10 13 -19 17 -19 10
0 -7 -3 -10 -6 -6 -3 3 -3 11 1 17 4 7 15 3 30 -12 13 -13 21 -25 18 -28z
m-2528 -10 c3 -5 1 -10 -4 -10 -6 0 -11 5 -11 10 0 6 2 10 4 10 3 0 8 -4 11
-10z m2625 -60 c0 -5 -2 -10 -4 -10 -3 0 -8 5 -11 10 -3 6 -1 10 4 10 6 0 11
-4 11 -10z m74 -32 c-3 -4 -11 -5 -19 -1 -21 7 -19 12 4 10 11 0 18 -5 15 -9z
m-2944 -64 c0 -8 -19 -13 -24 -6 -3 5 1 9 9 9 8 0 15 -2 15 -3z m3024 -20 c3
-8 2 -12 -4 -9 -6 3 -10 10 -10 16 0 14 7 11 14 -7z m30 10 c20 -8 21 -21 1
-21 -8 0 -12 4 -9 8 2 4 -2 10 -8 12 -7 3 -10 6 -6 6 3 1 13 -2 22 -5z m-3184
-73 c0 -4 -6 -8 -13 -8 -8 0 -14 6 -14 13 0 7 6 10 14 7 7 -3 13 -8 13 -12z
m3294 -16 c3 -8 1 -15 -4 -15 -6 0 -10 7 -10 15 0 8 2 15 4 15 2 0 6 -7 10
-15z m-3364 -5 c0 -5 -5 -10 -11 -10 -5 0 -7 5 -4 10 3 6 8 10 11 10 2 0 4 -4
4 -10z m-20 -35 c-9 -10 -9 -15 -1 -15 6 0 11 -5 11 -11 0 -8 -5 -8 -15 1 -12
10 -13 16 -4 26 6 8 14 14 16 14 3 0 0 -7 -7 -15z m3428 -50 c-3 -3 -9 2 -12
12 -6 14 -5 15 5 6 7 -7 10 -15 7 -18z m-3498 -39 c0 -2 -8 -10 -17 -17 -16
-13 -17 -12 -4 4 13 16 21 21 21 13z m3615 -16 c3 -5 -1 -10 -10 -10 -9 0 -13
5 -10 10 3 6 8 10 10 10 2 0 7 -4 10 -10z m-3778 -157 c0 -10 -3 -10 -16 0
-12 10 -14 9 -8 -5 3 -10 1 -20 -5 -24 -7 -5 -8 -2 -3 6 6 9 1 10 -16 5 l-24
-6 24 19 c27 22 48 24 48 5z m3874 -10 c13 -16 12 -17 -3 -4 -10 7 -18 15 -18
17 0 8 8 3 21 -13z m-3934 -37 c0 -8 -6 -12 -14 -9 -7 3 -10 9 -7 14 8 14 21
11 21 -5z m4088 -104 c-3 -3 2 -14 12 -24 26 -29 9 -21 -25 11 -18 18 -26 32
-19 34 13 5 40 -13 32 -21z m152 -236 c-3 -7 0 -19 6 -25 9 -9 8 -11 -5 -6
-18 7 -24 26 -11 38 11 11 15 8 10 -7z m28 -75 c-3 -6 -11 -11 -16 -11 -5 0
-4 6 3 14 14 16 24 13 13 -3z m-4529 -17 c-1 -8 -6 -17 -12 -21 -5 -4 -6 -4
-2 1 4 5 3 14 -2 21 -7 8 -5 12 4 12 8 0 13 -6 12 -13z m4582 -165 c-3 -8 -7
-3 -11 10 -4 17 -3 21 5 13 5 -5 8 -16 6 -23z m-4707 -66 c-9 -12 -20 -23 -25
-23 -5 0 -1 9 8 19 13 15 14 20 4 24 -7 3 -3 4 8 4 21 -1 21 -2 5 -24z m2303
-218 c3 -8 1 -15 -4 -15 -6 0 -10 7 -10 15 0 8 2 15 4 15 2 0 6 -7 10 -15z
m64 7 c12 10 14 10 8 1 -9 -16 -1 -16 26 -2 15 8 19 8 14 0 -7 -11 5 -15 31
-12 7 1 10 -7 8 -20 -2 -12 -1 -18 3 -15 4 4 7 12 7 17 0 5 5 8 10 7 6 -2 9
-6 8 -10 -2 -4 5 -4 15 -1 15 6 16 5 2 -12 -13 -17 -13 -18 0 -10 8 6 20 10
25 10 17 2 35 -17 28 -28 -3 -6 -1 -7 6 -3 8 6 9 12 2 20 -6 7 -8 15 -5 19 3
3 -2 4 -13 3 -23 -4 -53 15 -53 33 0 12 2 12 13 -1 15 -20 51 -28 52 -11 0 6
4 15 8 20 5 4 7 1 5 -7 -2 -9 3 -14 11 -12 12 3 12 0 1 -12 -10 -13 -10 -19 0
-31 10 -12 10 -18 -1 -32 -12 -16 -12 -17 2 -6 9 7 19 9 24 5 4 -4 3 3 -4 15
-6 12 -8 23 -3 26 4 2 1 2 -6 0 -7 -1 -10 2 -7 7 3 6 13 10 21 10 9 0 12 5 8
12 -4 7 -3 8 4 4 9 -5 9 -13 1 -27 -8 -16 -7 -26 6 -46 9 -13 19 -22 23 -18 4
3 0 10 -8 16 -13 8 -13 10 -1 18 16 11 41 4 41 -11 0 -6 -7 -4 -17 3 -15 13
-15 12 -2 -8 7 -13 18 -22 24 -21 5 1 21 -4 34 -11 14 -8 21 -9 17 -2 -4 6 -2
11 3 11 6 0 12 -4 12 -10 1 -5 2 -16 3 -22 2 -15 38 -11 48 5 5 8 8 8 8 2 0
-6 -5 -16 -12 -23 -9 -9 -9 -12 1 -12 7 0 9 -5 6 -10 -4 -6 -1 -9 7 -8 7 2 12
-3 10 -10 -1 -8 2 -11 7 -7 13 7 34 -32 26 -48 -4 -6 0 -4 8 6 8 9 20 17 28
17 11 0 11 -2 -1 -10 -13 -8 -12 -10 3 -10 9 0 17 5 17 10 0 6 5 10 11 10 6 0
0 -15 -12 -32 -12 -18 -16 -27 -9 -20 19 17 35 15 21 -2 -8 -10 -9 -16 -1 -21
6 -3 8 -11 4 -16 -3 -5 -2 -9 3 -8 21 4 24 -2 12 -18 -13 -16 -12 -17 3 -4 15
11 19 11 24 -3 3 -9 11 -16 17 -16 5 0 2 9 -8 20 -10 11 -15 20 -11 20 16 0
45 -46 40 -63 -3 -10 1 -20 10 -23 19 -7 21 -54 4 -73 -9 -9 -9 -12 -1 -7 6 3
13 3 16 -1 2 -5 2 -2 1 4 -2 7 0 12 4 12 4 -1 9 0 12 1 16 6 41 7 35 2 -4 -4
-12 -7 -18 -7 -6 0 -14 -15 -18 -33 -5 -27 -4 -30 7 -21 11 9 14 9 14 0 0 -7
5 -9 12 -5 7 4 8 3 4 -5 -4 -6 -12 -9 -17 -6 -5 4 -9 3 -10 -2 0 -4 -2 -17 -4
-28 -2 -10 1 -25 7 -32 7 -9 7 -13 -2 -13 -9 0 -10 -3 -1 -13 6 -8 9 -17 6
-20 -3 -4 -2 -5 2 -2 10 8 11 65 1 59 -4 -3 -8 0 -8 5 0 6 6 11 13 11 8 0 7 4
-3 10 -13 8 -12 10 3 10 13 0 16 -6 13 -25 -3 -15 0 -25 7 -26 9 0 8 -2 0 -6
-7 -2 -13 -9 -13 -14 0 -6 6 -7 13 -3 10 6 10 4 0 -7 -18 -19 -16 -29 5 -23
14 5 14 4 2 -4 -8 -6 -18 -8 -22 -6 -4 3 -5 -2 -2 -10 3 -9 11 -13 17 -9 6 3
7 1 3 -6 -6 -9 -11 -9 -21 -1 -11 9 -12 7 -8 -9 3 -12 8 -19 12 -17 4 3 13 1
21 -5 11 -6 12 -9 2 -9 -7 0 -10 -5 -6 -12 4 -7 3 -8 -5 -4 -6 4 -8 13 -5 19
5 9 3 8 -6 0 -11 -10 -11 -16 3 -31 14 -15 14 -19 2 -19 -8 0 -11 5 -8 10 3 6
1 7 -5 3 -17 -10 -15 -26 3 -26 8 0 15 -5 15 -11 0 -6 -10 -8 -22 -5 -13 3
-17 3 -9 0 11 -5 11 -8 0 -16 -11 -7 -11 -8 1 -6 9 2 16 -1 18 -7 1 -5 -7 -10
-17 -10 -11 0 -23 -4 -27 -8 -5 -4 0 -5 11 -1 18 7 18 6 6 -9 -7 -9 -17 -14
-22 -11 -5 3 -6 -1 -3 -9 3 -8 0 -18 -6 -22 -7 -4 -8 -11 -1 -18 10 -13 11
-88 0 -81 -10 6 -16 -16 -14 -48 1 -15 -4 -29 -12 -32 -9 -4 -11 -1 -7 5 11
18 12 69 2 69 -6 0 -8 -6 -5 -13 3 -7 -1 -24 -8 -37 -10 -19 -11 -28 -2 -39
10 -12 9 -12 -12 -2 -18 10 -21 15 -10 22 10 6 8 8 -8 6 -17 -1 -19 -4 -11
-14 6 -7 7 -13 2 -13 -5 0 -3 -4 4 -9 11 -7 10 -9 -3 -14 -9 -4 -14 -3 -11 1
2 4 1 14 -3 21 -6 9 -11 10 -15 2 -4 -6 -2 -11 3 -11 6 0 10 -6 8 -12 -1 -8 6
-12 18 -11 11 1 14 0 7 -3 -9 -4 -10 -10 -2 -18 7 -10 4 -18 -13 -32 l-22 -19
19 22 c18 22 18 23 0 30 -11 3 -22 11 -27 17 -4 6 -5 -1 -3 -16 3 -20 1 -25
-10 -21 -8 3 -14 -1 -14 -10 0 -23 -19 -31 -37 -15 -15 12 -15 11 -3 -9 8 -12
18 -19 24 -16 5 3 6 1 2 -5 -4 -6 -14 -8 -24 -5 -15 6 -16 5 -2 -13 11 -15 11
-16 0 -6 -19 16 -35 16 -21 -1 8 -10 7 -14 -4 -14 -8 0 -12 4 -9 8 2 4 0 10
-6 14 -5 3 -10 -1 -10 -10 0 -9 -3 -14 -8 -12 -4 3 -21 -6 -37 -20 -17 -14
-25 -22 -19 -19 7 3 14 0 17 -7 3 -8 -1 -14 -9 -14 -15 0 -27 24 -19 37 3 5 1
11 -4 14 -6 4 -8 -9 -6 -29 2 -19 -1 -38 -6 -41 -5 -3 -6 1 -3 9 3 8 -1 19 -9
25 -11 9 -14 8 -14 -3 0 -8 4 -12 9 -9 4 3 5 -2 1 -12 -5 -14 -8 -13 -19 7 -7
13 -13 19 -14 12 0 -7 -6 -11 -12 -9 -7 1 -10 1 -5 -1 29 -17 -20 -51 -63 -45
-11 2 -11 -1 3 -12 16 -12 16 -14 2 -20 -9 -3 -13 -2 -10 3 3 5 1 12 -4 16 -6
3 -9 11 -7 18 1 7 1 9 -1 4 -3 -4 -9 -4 -15 -1 -6 4 -6 0 0 -13 9 -15 8 -20
-3 -20 -8 0 -12 4 -9 9 3 4 0 8 -5 8 -6 0 -11 -5 -11 -11 0 -5 -5 -7 -10 -4
-6 4 -7 11 -4 17 4 6 2 8 -4 4 -5 -3 -13 0 -16 6 -3 7 -4 4 -1 -8 5 -18 2 -20
-27 -16 -18 2 -38 8 -44 13 -7 5 -11 3 -11 -6 0 -8 5 -11 11 -8 6 4 7 2 3 -3
-5 -5 -12 -9 -15 -9 -4 0 -14 -4 -22 -9 -12 -7 -13 -6 -2 5 6 7 12 20 12 29 0
9 -8 3 -20 -15 -11 -16 -20 -24 -20 -17 0 7 -4 10 -10 7 -5 -3 -10 -1 -10 5 0
6 7 10 16 8 10 -2 18 3 20 10 1 7 0 8 -3 2 -2 -5 -10 -7 -15 -4 -6 4 -18 -2
-26 -12 -14 -18 -14 -18 -8 2 5 15 2 21 -9 21 -9 0 -14 -6 -11 -13 3 -8 0 -16
-6 -20 -6 -4 -8 -3 -5 3 4 6 0 14 -9 17 -8 3 -12 2 -9 -3 3 -5 2 -12 -3 -15
-4 -2 -8 4 -9 14 -1 10 4 21 10 23 7 2 1 2 -11 0 -13 -2 -21 0 -18 6 3 5 -2 8
-11 6 -10 -2 -22 -4 -26 -4 -5 -1 -6 -5 -2 -10 3 -5 1 -12 -4 -15 -10 -7 -9
19 1 30 4 3 4 13 1 22 -5 11 -3 13 7 7 9 -5 11 -4 6 4 -10 15 -29 3 -22 -15 3
-8 -1 -14 -10 -14 -10 0 -14 6 -10 15 3 8 1 15 -4 15 -10 0 -14 -14 -11 -39 2
-7 -3 -10 -9 -6 -6 4 -9 13 -6 21 3 8 -6 20 -25 29 -18 10 -27 21 -23 28 4 7
3 8 -1 4 -5 -4 -10 -15 -11 -23 -1 -9 0 -13 3 -10 8 8 43 -13 43 -25 0 -6 -7
-3 -16 5 -20 21 -28 20 -20 -1 6 -16 5 -16 -8 0 -8 10 -13 29 -11 42 1 14 -2
22 -6 19 -5 -3 -9 -14 -9 -25 0 -10 -4 -19 -10 -19 -5 0 -6 7 -3 17 5 12 3 14
-8 8 -11 -6 -11 -5 -2 5 13 14 6 43 -9 34 -6 -4 -5 -10 3 -15 10 -6 7 -8 -8
-6 -17 1 -20 5 -12 18 15 29 10 33 -12 8 -11 -13 -18 -19 -15 -12 4 6 2 14 -4
18 -5 3 -10 -2 -10 -12 0 -12 -6 -7 -16 14 -9 18 -24 35 -34 38 -10 3 -18 14
-17 25 1 10 5 16 9 14 5 -3 5 -10 2 -16 -5 -7 -2 -8 6 -3 8 5 11 4 7 -2 -7
-11 22 -28 31 -18 3 3 0 5 -6 5 -7 0 -12 5 -12 11 0 5 4 8 9 5 11 -7 8 21 -4
31 -4 4 -5 3 -1 -4 3 -6 2 -14 -3 -18 -5 -3 -14 2 -19 10 -11 21 -43 9 -34
-13 5 -14 4 -15 -10 -2 -13 12 -14 16 -2 23 7 4 11 14 8 22 -5 12 -11 12 -27
4 -18 -10 -20 -9 -9 2 15 16 16 39 1 39 -5 0 -8 -4 -5 -8 3 -5 -1 -9 -7 -9
-16 0 -20 37 -6 53 7 8 6 15 -2 20 -8 4 -9 3 -5 -4 4 -7 3 -12 -3 -12 -5 0
-13 -9 -16 -20 -3 -11 -11 -20 -18 -20 -8 0 -8 3 1 12 27 27 12 74 -20 69 -5
0 -7 5 -5 12 1 6 -3 11 -10 10 -12 -3 -12 15 1 35 11 18 -13 47 -28 32 -5 -5
-15 -10 -20 -10 -6 0 -3 5 7 11 9 5 17 15 17 21 0 6 -8 7 -17 3 -13 -4 -15 -3
-7 5 11 11 47 3 40 -9 -3 -4 4 -7 15 -7 19 0 18 1 -3 18 -21 16 -34 21 -49 20
-3 -1 -6 5 -6 13 0 8 4 12 9 9 4 -3 8 2 8 10 0 8 -7 19 -16 24 -15 8 -15 10 0
15 10 4 15 3 12 -2 -3 -5 1 -14 8 -20 10 -9 16 -9 21 -1 4 6 1 9 -5 8 -7 -2
-14 6 -16 17 -1 11 -11 25 -20 32 -12 9 -13 13 -5 13 11 0 11 3 1 15 -7 9 -10
18 -6 22 3 3 6 0 7 -8 0 -8 4 -5 8 6 5 11 4 23 -1 26 -15 10 -17 46 -2 46 10
0 11 -4 4 -12 -8 -9 -6 -14 5 -19 10 -4 14 -2 9 5 -4 6 -1 15 6 19 9 6 6 10
-9 15 -21 6 -21 8 -5 19 13 10 14 15 4 21 -9 5 -11 4 -6 -3 4 -7 3 -12 -2 -12
-5 0 -9 13 -8 29 0 16 4 27 9 24 4 -2 4 -9 1 -15 -4 -7 -2 -8 4 -4 7 4 12 2
12 -5 0 -7 3 -10 6 -7 3 4 0 17 -7 30 -7 12 -12 29 -10 37 1 8 -2 10 -10 5 -8
-4 -10 -3 -5 5 6 9 14 8 32 -4 24 -15 24 -15 12 5 -7 11 -16 21 -20 21 -5 1
-12 2 -17 3 -5 0 -13 4 -16 8 -4 4 5 5 20 2 26 -5 27 -3 14 12 -13 16 -11 16
14 -1 15 -10 30 -15 34 -11 3 3 1 6 -5 6 -17 0 -15 25 3 40 8 7 12 16 9 21 -3
5 2 9 11 9 10 0 13 -5 9 -12 -5 -7 -3 -8 5 -3 9 5 9 11 3 17 -14 14 -45 2 -36
-13 4 -7 3 -9 -4 -5 -6 3 -14 -3 -17 -15 -4 -11 -9 -18 -12 -16 -2 3 1 16 8
29 7 12 12 27 11 31 -1 5 2 6 7 2 6 -3 15 4 21 15 6 11 16 18 21 14 8 -4 7 0
0 14 -6 11 -16 23 -23 26 -7 3 -2 3 10 0 21 -5 23 -4 13 14 -8 14 -8 23 -1 27
6 4 10 3 9 -2 -3 -19 2 -33 12 -33 6 0 8 7 5 16 -5 14 -4 15 9 4 13 -10 15 -9
15 8 0 14 -5 20 -14 16 -8 -3 -17 -1 -21 5 -3 7 0 8 9 5 9 -4 18 1 22 10 3 9
11 13 16 10 7 -4 7 -9 0 -13 -6 -4 -4 -12 6 -21 14 -13 15 -12 9 3 -4 10 -2
17 6 17 8 0 7 4 -3 10 -13 9 -13 12 1 23 9 6 16 16 17 20 0 5 3 11 5 14 3 3 4
-3 3 -12 -1 -9 -8 -20 -15 -24 -9 -6 -8 -10 5 -15 10 -4 15 -4 11 0 -3 4 3 20
15 37 12 17 17 28 12 24 -5 -3 -16 -1 -24 4 -13 9 -13 10 0 8 35 -4 51 1 44
14 -4 6 3 3 16 -8 l23 -20 -18 28 c-15 24 -16 27 -1 21 19 -7 21 6 4 26 -11
12 -10 12 5 1 11 -9 15 -21 12 -32 -4 -11 -2 -19 5 -19 6 0 8 5 4 12 -5 8 -2
9 9 5 10 -3 17 -2 17 2 0 5 -6 11 -12 14 -7 2 -10 8 -6 12 5 5 18 0 30 -11 13
-12 18 -13 13 -4 -13 21 -15 40 -4 40 5 0 12 -7 16 -16 5 -15 7 -15 15 0 5 9
13 14 18 11 4 -3 11 2 14 10 4 12 1 13 -12 7 -25 -12 -45 -9 -49 8 -4 12 -3
12 5 1 12 -16 27 2 17 22 -4 6 1 3 10 -8 12 -14 19 -16 22 -7 3 6 9 12 14 12
6 0 7 -4 4 -10 -3 -5 -2 -10 4 -10 6 0 8 -7 5 -15 -4 -8 -1 -15 4 -15 6 0 9
12 6 28 l-4 27 22 -25 c14 -16 19 -19 15 -7 -4 9 -2 17 2 17 5 0 11 -5 13 -12
3 -8 7 -6 10 4 5 12 1 15 -17 13 -14 -1 -22 2 -19 6 5 9 -9 13 -36 10 -13 -2
-13 0 -1 8 10 6 21 6 34 0 10 -6 23 -8 30 -6 7 3 1 9 -12 14 -24 10 -24 10 -3
15 12 4 20 3 18 0 -2 -4 2 -12 9 -19 10 -10 14 -9 19 2 2 7 0 16 -7 19 -7 4
-2 4 10 2 13 -2 25 0 28 4 3 4 16 3 29 -3 13 -7 23 -14 21 -17 -2 -3 5 -6 15
-6 10 0 16 4 14 8 -4 6 21 5 44 -1 7 -3 12 0 12 7 0 4 -9 7 -19 7 -11 0 -23 4
-28 9 -5 5 -3 6 5 2 7 -4 12 -2 13 6 0 10 2 11 6 0 4 -10 8 -10 21 0z m2446 0
c3 -5 -1 -9 -9 -9 -8 0 -12 4 -9 9 3 4 7 8 9 8 2 0 6 -4 9 -8z m-2089 -111
c-3 -2 -11 1 -18 7 -8 7 -18 8 -22 4 -5 -4 -5 -1 -1 5 5 10 11 10 26 1 11 -7
17 -14 15 -17z m-735 9 c0 -5 -5 -10 -11 -10 -5 0 -7 5 -4 10 3 6 8 10 11 10
2 0 4 -4 4 -10z m797 -5 c5 -4 2 -5 -4 -1 -8 4 -13 1 -13 -8 0 -8 5 -16 12
-18 8 -3 7 -6 -3 -10 -10 -4 -15 1 -16 15 -1 11 -8 24 -15 29 -9 5 -6 7 9 5
12 -2 26 -7 30 -12z m40 -50 c-4 -8 -2 -17 3 -20 6 -4 10 -1 10 6 0 18 11 4
14 -18 2 -10 8 -18 14 -18 6 0 14 -4 19 -9 5 -5 3 -6 -4 -2 -7 4 -13 2 -13 -4
0 -5 -13 4 -29 22 -24 27 -32 58 -14 58 3 0 3 -7 0 -15z m2067 -54 c4 -5 -3
-7 -14 -4 -23 6 -26 13 -6 13 8 0 17 -4 20 -9z m-3049 -10 c3 -5 2 -12 -3 -15
-5 -3 -9 1 -9 9 0 17 3 19 12 6z m-1961 -79 c-6 -4 -14 -17 -18 -29 -4 -13
-15 -23 -24 -22 -11 0 -13 2 -4 6 10 4 10 8 0 21 -11 15 -11 15 3 4 14 -10 17
-9 22 8 3 11 11 20 19 20 9 0 9 -3 2 -8z m3056 -2 c0 -5 7 -7 15 -4 8 4 15 1
15 -4 0 -21 -18 -21 -35 -2 -10 12 -13 20 -7 20 7 0 12 -4 12 -10z m60 -30 c6
-11 8 -20 6 -20 -3 0 -10 9 -16 20 -6 11 -8 20 -6 20 3 0 10 -9 16 -20z m1898
-10 c7 -11 11 -20 9 -20 -2 0 -12 9 -22 20 -10 11 -14 20 -9 20 5 0 15 -9 22
-20z m-3142 -35 c-8 -8 -18 -15 -22 -15 -3 0 -1 7 6 15 7 8 17 15 22 15 5 0 3
-7 -6 -15z m-1871 -13 c-3 -3 -11 0 -18 7 -9 10 -8 11 6 5 10 -3 15 -9 12 -12z
m5055 -87 c0 -2 -6 -5 -13 -8 -8 -3 -14 1 -14 8 0 7 6 11 14 8 7 -3 13 -6 13
-8z m-1846 -44 c4 -5 -3 -7 -14 -4 -23 6 -26 13 -6 13 8 0 17 -4 20 -9z m1843
3 c-3 -3 -12 -4 -19 -1 -8 3 -5 6 6 6 11 1 17 -2 13 -5z m-5112 -34 c-3 -5
-11 -10 -16 -10 -6 0 -7 5 -4 10 3 6 11 10 16 10 6 0 7 -4 4 -10z m5 -84 c0
-3 -4 -8 -10 -11 -5 -3 -10 -1 -10 4 0 6 5 11 10 11 6 0 10 -2 10 -4z m3276
-248 c4 -7 3 -10 -1 -5 -5 4 -19 -3 -32 -15 -16 -15 -20 -25 -12 -34 15 -18
-8 -29 -27 -13 -14 12 -14 14 2 26 10 7 14 13 10 13 -5 0 -3 7 4 15 7 8 16 13
20 10 5 -3 11 -1 15 5 8 13 12 13 21 -2z m-3261 -57 c-6 -5 -25 10 -25 20 0 5
6 4 14 -3 8 -7 12 -15 11 -17z m3225 -35 c0 -3 -4 -8 -10 -11 -5 -3 -10 -1
-10 4 0 6 5 11 10 11 6 0 10 -2 10 -4z m1869 -29 c0 -9 -2 -8 -6 1 -2 6 -10 9
-15 6 -7 -4 -8 -2 -4 5 9 13 26 5 25 -12z m-5074 -27 c-3 -5 -14 -10 -23 -9
-14 0 -13 2 3 9 27 11 27 11 20 0z m5062 -4 c0 -8 -9 -14 -19 -13 -18 1 -18 2
-2 14 22 16 21 16 21 -1z m-5037 -10 c0 -2 -6 -9 -14 -15 -11 -9 -16 -9 -22 0
-4 7 -3 9 4 5 6 -3 13 -2 17 4 6 10 15 14 15 6z m5020 -31 c0 -8 -4 -15 -10
-15 -5 0 -7 7 -4 15 4 8 8 15 10 15 2 0 4 -7 4 -15z m-5023 -19 c0 -8 -6 -12
-15 -9 -11 5 -11 7 0 14 7 5 13 9 14 9 0 0 1 -6 1 -14z m5001 -49 c6 -5 17 -5
22 -2 15 10 12 0 -9 -24 -12 -13 -22 -18 -26 -11 -3 5 -1 10 5 10 7 0 10 6 8
13 -3 6 -10 12 -15 12 -6 0 -14 3 -18 7 -9 9 16 5 33 -5z m-2004 -103 c3 -8 2
-12 -4 -9 -6 3 -10 10 -10 16 0 14 7 11 14 -7z m-979 -14 c3 -5 1 -10 -4 -10
-6 0 -11 5 -11 10 0 6 2 10 4 10 3 0 8 -4 11 -10z m871 -52 c-9 -5 -14 -13
-11 -19 4 -5 2 -9 -3 -9 -15 0 -22 26 -10 38 6 6 17 8 25 5 13 -5 13 -7 -1
-15z m-786 -8 c0 -5 -2 -10 -4 -10 -3 0 -8 5 -11 10 -3 6 -1 10 4 10 6 0 11
-4 11 -10z m151 -83 c-10 -9 -11 -8 -5 6 3 10 9 15 12 12 3 -3 0 -11 -7 -18z
m70 1 c11 -21 11 -22 -4 -9 -10 7 -17 17 -17 22 0 15 9 10 21 -13z m2628 -8
c11 -22 10 -23 -2 -8 -8 10 -17 15 -21 11 -4 -4 -4 1 0 10 7 20 7 20 23 -13z
m-4873 -22 c0 -10 -1 -18 -3 -18 -1 0 -7 8 -12 18 -7 13 -6 19 2 19 7 0 13 -9
13 -19z m4824 -85 c0 -5 -5 -15 -10 -23 -7 -12 -9 -10 -7 8 1 19 17 33 17 15z
m-4780 -87 c0 -2 -8 -10 -17 -17 -16 -13 -17 -12 -4 4 13 16 21 21 21 13z m34
-42 c3 -8 2 -12 -4 -9 -6 3 -10 10 -10 16 0 14 7 11 14 -7z m4699 -18 c3 3 4
-1 3 -10 -1 -9 -8 -22 -16 -29 -10 -9 -11 -9 -6 1 4 7 2 12 -6 12 -9 0 -9 3 2
10 14 9 7 14 -13 11 -5 -1 -6 3 -2 9 5 8 11 8 19 1 7 -6 15 -8 19 -5z m-58
-144 c-3 -3 -11 0 -18 7 -9 10 -8 11 6 5 10 -3 15 -9 12 -12z m-4567 -27 c-3
-3 -9 2 -12 12 -6 14 -5 15 5 6 7 -7 10 -15 7 -18z m4566 12 c4 4 4 -1 0 -11
-5 -12 -9 -14 -14 -6 -5 8 -9 7 -13 -4 -4 -9 -12 -16 -19 -16 -10 0 -10 2 0 9
7 4 12 12 11 17 -3 20 2 26 14 15 8 -6 17 -8 21 -4z m-4559 -35 c-3 -3 3 -11
13 -19 15 -13 15 -13 -5 -3 -28 13 -37 27 -18 27 8 0 13 -3 10 -5z m90 -102
c3 -6 -1 -7 -9 -4 -18 7 -21 14 -7 14 6 0 13 -4 16 -10z m55 -96 c0 -8 -19
-13 -24 -6 -3 5 1 9 9 9 8 0 15 -2 15 -3z m24 -91 c4 -9 1 -21 -5 -27 -9 -8
-10 -8 -5 2 4 7 2 19 -4 27 -7 9 -8 15 -2 15 5 0 13 -8 16 -17z m4185 -20 c-6
-6 -17 -9 -24 -7 -11 4 -10 9 3 23 19 19 38 5 21 -16z m-4145 -37 c-4 -10 0
-14 13 -12 10 2 12 1 5 -1 -7 -3 -10 -8 -7 -13 3 -5 13 -6 23 -3 14 5 15 3 5
-7 -10 -11 -16 -11 -31 3 -10 9 -25 17 -33 17 -10 1 -8 5 5 15 25 19 27 19 20
1z m3976 -175 c-4 -9 -17 -24 -28 -34 -20 -18 -20 -18 -17 0 1 10 8 17 14 16
10 -3 15 9 13 28 -1 3 5 6 13 6 10 0 11 -5 5 -16z m-3805 -1 c3 -5 1 -10 -4
-10 -6 0 -11 5 -11 10 0 6 2 10 4 10 3 0 8 -4 11 -10z m3637 -184 c7 4 8 2 4
-5 -9 -13 -26 -5 -25 12 0 9 2 8 6 -1 2 -6 10 -9 15 -6z m-52 0 c0 -2 -8 -10
-17 -17 -16 -13 -17 -12 -4 4 13 16 21 21 21 13z m-28 -88 c-6 -6 -12 -6 -17
3 -6 8 -4 10 5 4 9 -5 10 -1 6 16 -6 21 -6 22 5 6 7 -13 8 -22 1 -29z m-3314
-3 c-3 -3 -9 2 -12 12 -6 14 -5 15 5 6 7 -7 10 -15 7 -18z m3256 -12 c-5 -24
-3 -25 13 -12 16 13 17 12 4 -3 -17 -22 -32 -14 -27 15 6 28 5 27 10 27 3 0 3
-12 0 -27z m-43 -20 c13 -16 12 -17 -3 -4 -17 13 -22 21 -14 21 2 0 10 -8 17
-17z m-3071 -73 c0 -5 -5 -10 -11 -10 -5 0 -7 5 -4 10 3 6 8 10 11 10 2 0 4
-4 4 -10z m54 -38 c3 -5 -1 -9 -9 -9 -8 0 -12 4 -9 9 3 4 7 8 9 8 2 0 6 -4 9
-8z m-34 -22 c0 -5 -7 -7 -15 -4 -8 4 -15 8 -15 10 0 2 7 4 15 4 8 0 15 -4 15
-10z m2900 -14 c0 -3 -4 -8 -10 -11 -5 -3 -10 -1 -10 4 0 6 5 11 10 11 6 0 10
-2 10 -4z m-2746 -72 c3 -8 2 -12 -4 -9 -6 3 -10 10 -10 16 0 14 7 11 14 -7z
m2637 -7 c-10 -9 -11 -8 -5 6 3 10 9 15 12 12 3 -3 0 -11 -7 -18z m27 -11 c-8
-6 -16 -14 -16 -18 -3 -12 -16 -11 -20 0 -2 6 6 13 18 17 11 3 17 11 14 17 -5
7 -2 8 6 3 10 -6 10 -10 -2 -19z m-178 -111 c0 -8 -4 -15 -10 -15 -5 0 -7 7
-4 15 4 8 8 15 10 15 2 0 4 -7 4 -15z m0 -27 c13 4 13 3 2 -11 -12 -14 -15
-14 -33 1 -24 20 -24 25 -1 14 9 -5 24 -7 32 -4z m-115 -58 c-3 -5 -12 -10
-18 -10 -7 0 -6 4 3 10 19 12 23 12 15 0z m-25 -45 c0 -2 -6 -8 -13 -14 -10
-8 -14 -7 -14 2 0 8 6 14 14 14 7 0 13 -1 13 -2z m-2003 -25 c-1 -11 -5 -20
-9 -20 -10 0 -10 4 -2 24 8 22 13 20 11 -4z m20 -12 c-3 -8 -6 -5 -6 6 -1 11
2 17 5 13 3 -3 4 -12 1 -19z m1893 -18 c8 -5 11 -10 5 -11 -5 0 -20 -2 -33 -5
-19 -3 -21 -2 -10 11 16 17 19 18 38 5z m-1722 -68 c12 9 12 7 -2 -9 -22 -27
-37 -22 -28 10 5 18 7 19 10 4 3 -15 6 -16 20 -5z m28 -37 c-3 -24 -12 -27
-27 -8 -9 11 -10 14 -1 9 6 -4 12 -2 12 3 0 6 4 11 9 11 5 0 8 -7 7 -15z
m1548 3 c-3 -4 -9 -8 -15 -8 -5 0 -9 4 -9 8 0 5 7 9 15 9 8 0 12 -4 9 -9z
m-44 -42 c0 -10 -30 0 -34 11 -4 11 -1 11 14 3 11 -6 20 -12 20 -14z m-1384
-38 c3 -4 -1 -5 -10 -4 -8 1 -18 5 -22 8 -3 4 1 5 10 4 8 -1 18 -5 22 -8z m24
-64 c0 -3 -7 -1 -15 6 -8 7 -15 17 -15 22 0 5 7 3 15 -6 8 -8 15 -18 15 -22z
m1175 -33 c-9 -8 -36 -10 -30 -2 2 4 11 8 20 8 8 0 13 -3 10 -6z m-1065 -106
c11 -13 10 -14 -4 -9 -12 5 -15 2 -10 -10 3 -9 10 -13 15 -10 5 3 9 -2 9 -11
0 -9 5 -13 10 -10 6 4 8 10 5 15 -7 11 22 7 32 -5 4 -4 3 -5 -4 -1 -6 3 -16
-1 -21 -10 -7 -13 -13 -14 -31 -5 -11 7 -21 17 -22 24 0 7 -2 20 -4 30 -4 21
8 22 25 2z m1024 -6 c-3 -5 -10 -7 -15 -3 -5 3 -7 10 -3 15 3 5 10 7 15 3 5
-3 7 -10 3 -15z m-108 -176 c-10 -11 -19 -7 -22 10 -2 15 0 16 12 6 8 -6 12
-14 10 -16z m-726 -133 c0 -5 -2 -10 -4 -10 -3 0 -8 5 -11 10 -3 6 -1 10 4 10
6 0 11 -4 11 -10z m620 -80 c0 -5 -2 -10 -4 -10 -3 0 -8 5 -11 10 -3 6 -1 10
4 10 6 0 11 -4 11 -10z m-5 -28 c-3 -3 -11 0 -18 7 -9 10 -8 11 6 5 10 -3 15
-9 12 -12z m10 -28 c0 -5 -12 -27 -25 -49 -14 -22 -25 -42 -26 -45 -6 -37 -35
-47 -33 -12 0 11 2 12 6 4 2 -6 9 -9 14 -6 6 3 5 11 -2 20 -10 12 -9 17 0 27
10 9 11 8 5 -8 -5 -15 -4 -17 5 -9 7 6 13 20 14 32 0 11 5 20 10 19 5 -1 12 4
15 12 2 8 0 11 -5 8 -5 -3 -10 0 -10 7 0 8 7 13 16 11 9 -1 16 -6 16 -11z
m-86 -137 c8 -10 7 -14 -2 -14 -8 0 -14 6 -14 14 0 7 1 13 2 13 2 0 8 -6 14
-13z m-146 -202 c-7 -21 -12 -19 -10 4 0 11 5 18 9 15 4 -3 5 -11 1 -19z
m-168 -5 c3 -6 -1 -7 -9 -4 -18 7 -21 14 -7 14 6 0 13 -4 16 -10z"/>
<path d="M3347 4656 c-9 -7 -17 -19 -17 -27 0 -11 2 -11 10 1 5 8 10 11 10 6
0 -5 6 -3 14 3 11 9 15 9 19 -1 3 -8 6 -8 6 -2 2 22 -23 33 -42 20z"/>
<path d="M3510 4659 c0 -5 5 -7 10 -4 6 3 10 8 10 11 0 2 -4 4 -10 4 -5 0 -10
-5 -10 -11z"/>
<path d="M3350 4606 c0 -2 7 -7 16 -10 8 -3 12 -2 9 4 -6 10 -25 14 -25 6z"/>
<path d="M3886 4502 c-3 -5 1 -9 9 -9 8 0 12 4 9 9 -3 4 -7 8 -9 8 -2 0 -6 -4
-9 -8z"/>
<path d="M3033 4455 c-3 -9 -3 -18 -1 -21 3 -3 8 4 11 16 6 23 -1 27 -10 5z"/>
<path d="M2919 4333 c-12 -16 -12 -17 2 -6 9 7 19 10 22 6 4 -3 7 -1 7 5 0 17
-16 15 -31 -5z"/>
<path d="M4100 4300 c-9 -6 -10 -10 -3 -10 6 0 15 5 18 10 8 12 4 12 -15 0z"/>
<path d="M4108 4253 c6 -2 10 -8 7 -13 -3 -4 1 -13 8 -19 11 -8 14 -7 14 7 0
18 -15 32 -32 31 -5 0 -4 -3 3 -6z"/>
<path d="M2880 4220 c-8 -5 -12 -12 -9 -15 4 -3 12 1 19 10 14 17 11 19 -10 5z"/>
<path d="M2839 4168 c15 -21 31 -23 31 -6 0 6 -3 8 -7 5 -3 -4 -13 -1 -22 6
-14 11 -14 10 -2 -5z"/>
<path d="M2810 4126 c0 -2 7 -7 16 -10 8 -3 12 -2 9 4 -6 10 -25 14 -25 6z"/>
<path d="M2809 3943 c0 -4 -2 -16 -4 -26 -2 -9 1 -15 6 -11 5 3 7 9 4 14 -3 4
0 10 7 12 9 3 9 6 0 12 -7 4 -12 4 -13 -1z"/>
<path d="M2815 3810 c-3 -5 -1 -10 4 -10 6 0 11 5 11 10 0 6 -2 10 -4 10 -3 0
-8 -4 -11 -10z"/>
<path d="M2850 3735 c8 -10 9 -19 2 -27 -6 -9 -4 -18 8 -30 16 -17 17 -17 14
5 -1 12 -3 29 -3 38 -1 9 -8 20 -17 23 -14 5 -15 4 -4 -9z"/>
<path d="M4114 3732 c3 -5 0 -13 -6 -15 -9 -4 -10 -6 -1 -6 17 -1 25 16 12 25
-7 4 -9 3 -5 -4z"/>
<path d="M4119 3693 c-10 -11 -10 -14 -1 -9 6 4 12 3 12 -3 0 -5 -5 -12 -10
-14 -6 -3 -5 -4 2 -3 7 1 14 12 14 24 2 26 0 27 -17 5z"/>
<path d="M2891 3674 c0 -11 3 -14 6 -6 3 7 2 16 -1 19 -3 4 -6 -2 -5 -13z"/>
<path d="M4075 3621 c-3 -5 -2 -12 3 -15 5 -3 9 1 9 9 0 17 -3 19 -12 6z"/>
<path d="M2920 3579 c0 -5 5 -7 10 -4 6 3 10 8 10 11 0 2 -4 4 -10 4 -5 0 -10
-5 -10 -11z"/>
<path d="M3976 3517 c3 -10 9 -15 12 -12 3 3 0 11 -7 18 -10 9 -11 8 -5 -6z"/>
<path d="M3965 3481 c-3 -5 -2 -12 3 -15 5 -3 9 1 9 9 0 17 -3 19 -12 6z"/>
<path d="M3061 3442 c-1 -8 -6 -10 -13 -6 -7 4 -10 4 -6 0 3 -4 10 -8 15 -8 4
0 15 -5 23 -11 8 -6 12 -7 8 -3 -4 5 -2 16 5 25 10 14 10 14 -5 3 -13 -10 -17
-10 -21 0 -4 11 -6 10 -6 0z"/>
<path d="M3910 3438 c0 -4 4 -8 9 -8 6 0 12 4 15 8 3 5 -1 9 -9 9 -8 0 -15 -4
-15 -9z"/>
<path d="M3830 3406 c0 -2 7 -7 16 -10 8 -3 12 -2 9 4 -6 10 -25 14 -25 6z"/>
<path d="M3227 3359 c7 -7 15 -10 18 -7 3 3 -2 9 -12 12 -14 6 -15 5 -6 -5z"/>
<path d="M3699 3345 c-1 -3 -2 -8 -3 -12 -1 -5 -5 -13 -9 -20 -4 -6 -3 -15 3
-18 6 -4 10 -3 9 2 -3 20 2 27 11 13 6 -9 12 -11 17 -5 5 6 7 9 5 8 -8 -4 -30
22 -25 30 2 4 2 7 -1 7 -3 0 -7 -2 -7 -5z"/>
<path d="M3356 3318 c3 -5 10 -6 15 -3 13 9 11 12 -6 12 -8 0 -12 -4 -9 -9z"/>
<path d="M4155 3740 c3 -5 11 -10 16 -10 6 0 7 5 4 10 -3 6 -11 10 -16 10 -6
0 -7 -4 -4 -10z"/>
<path d="M3074 6526 c3 -22 22 -40 30 -28 3 5 -3 17 -13 27 -17 15 -19 15 -17
1z"/>
<path d="M3010 6519 c0 -3 11 -6 25 -6 14 0 25 3 25 6 0 4 -11 7 -25 7 -14 0
-25 -3 -25 -7z"/>
<path d="M2964 6499 c-3 -6 -2 -15 3 -20 5 -5 9 -1 9 11 0 23 -2 24 -12 9z"/>
<path d="M2935 6480 c3 -5 8 -10 11 -10 2 0 4 5 4 10 0 6 -5 10 -11 10 -5 0
-7 -4 -4 -10z"/>
<path d="M4091 6477 c-1 -10 -5 -16 -10 -12 -5 3 -12 1 -15 -4 -4 -5 -2 -12 3
-15 12 -8 34 20 28 36 -3 8 -6 6 -6 -5z"/>
<path d="M2555 6380 c3 -5 8 -10 11 -10 2 0 4 5 4 10 0 6 -5 10 -11 10 -5 0
-7 -4 -4 -10z"/>
<path d="M4457 6378 c2 -5 10 -8 18 -8 8 0 16 3 18 8 3 4 -5 7 -18 7 -13 0
-21 -3 -18 -7z"/>
<path d="M4505 6359 c-11 -16 -1 -19 13 -3 7 8 8 14 3 14 -5 0 -13 -5 -16 -11z"/>
<path d="M2310 6280 c0 -5 5 -10 11 -10 5 0 7 5 4 10 -3 6 -8 10 -11 10 -2 0
-4 -4 -4 -10z"/>
<path d="M4675 6250 c-3 -6 1 -7 9 -4 18 7 21 14 7 14 -6 0 -13 -4 -16 -10z"/>
<path d="M4790 6236 c0 -2 8 -10 18 -17 15 -13 16 -12 3 4 -13 16 -21 21 -21
13z"/>
<path d="M4892 6161 c-11 -7 -11 -9 0 -14 9 -3 15 1 15 9 0 8 -1 14 -1 14 -1
0 -7 -4 -14 -9z"/>
<path d="M2077 6144 c-3 -3 -3 -13 0 -22 4 -9 2 -13 -4 -9 -7 5 -9 0 -6 -13 7
-27 17 -16 19 21 1 31 1 32 -9 23z"/>
<path d="M4914 6111 c0 -11 4 -17 8 -15 4 3 8 12 8 20 0 8 -4 14 -8 14 -4 0
-8 -9 -8 -19z"/>
<path d="M2030 6099 c-11 -6 -12 -9 -2 -9 7 0 11 -4 7 -9 -3 -5 0 -13 7 -17 7
-4 10 -4 6 1 -4 4 -3 14 3 21 13 16 -2 26 -21 13z"/>
<path d="M5015 6079 c-4 -6 -5 -12 -2 -15 2 -3 7 2 10 11 7 17 1 20 -8 4z"/>
<path d="M5050 6045 c-7 -9 -11 -17 -9 -20 3 -2 10 5 17 15 14 24 10 26 -8 5z"/>
<path d="M1921 6004 c6 -7 16 -11 21 -8 11 7 3 17 -18 20 -12 2 -13 -1 -3 -12z"/>
<path d="M1639 5773 c7 -13 7 -24 2 -27 -5 -4 -12 0 -14 6 -4 9 -6 10 -6 1 -1
-18 16 -24 28 -10 8 10 7 19 -5 33 -14 18 -15 18 -5 -3z"/>
<path d="M1570 5719 c0 -5 5 -7 10 -4 6 3 10 8 10 11 0 2 -4 4 -10 4 -5 0 -10
-5 -10 -11z"/>
<path d="M5430 5646 c0 -2 6 -9 14 -15 11 -9 16 -9 22 0 4 8 3 9 -4 5 -7 -4
-12 -2 -12 3 0 6 -4 11 -10 11 -5 0 -10 -2 -10 -4z"/>
<path d="M1444 5531 c6 -9 -30 -41 -37 -34 -3 3 -3 -5 0 -18 4 -15 3 -20 -5
-15 -7 4 -12 3 -12 -2 0 -6 8 -13 17 -16 10 -4 14 -4 10 0 -4 4 -2 13 4 21 6
7 8 13 4 13 -4 0 -2 7 5 15 7 8 16 13 20 10 4 -3 13 1 19 9 9 11 7 15 -9 19
-11 3 -18 2 -16 -2z"/>
<path d="M5655 5400 c-3 -5 -1 -10 4 -10 6 0 11 5 11 10 0 6 -2 10 -4 10 -3 0
-8 -4 -11 -10z"/>
<path d="M5640 5369 c0 -15 18 -19 23 -6 3 8 -1 14 -9 14 -8 0 -14 -4 -14 -8z"/>
<path d="M5679 5333 c-13 -16 -12 -17 4 -4 9 7 17 15 17 17 0 8 -8 3 -21 -13z"/>
<path d="M1245 5279 c-3 -4 2 -6 10 -5 21 3 28 13 10 13 -9 0 -18 -4 -20 -8z"/>
<path d="M5730 5280 c0 -5 5 -10 11 -10 5 0 7 5 4 10 -3 6 -8 10 -11 10 -2 0
-4 -4 -4 -10z"/>
<path d="M1170 5120 c0 -5 5 -10 10 -10 6 0 10 5 10 10 0 6 -4 10 -10 10 -5 0
-10 -4 -10 -10z"/>
<path d="M5830 5079 c0 -5 -5 -7 -11 -3 -8 5 -8 1 0 -13 6 -11 7 -23 3 -27 -3
-4 2 -4 13 0 11 5 14 9 7 12 -7 2 -12 8 -12 13 0 6 4 7 10 4 6 -3 7 1 4 9 -7
18 -14 21 -14 5z"/>
<path d="M5975 4769 c-4 -6 -5 -12 -2 -15 2 -3 7 2 10 11 7 17 1 20 -8 4z"/>
<path d="M970 4522 c0 -5 7 -9 15 -9 8 0 12 4 9 9 -3 4 -9 8 -15 8 -5 0 -9 -4
-9 -8z"/>
<path d="M980 4493 c5 -2 8 -9 5 -13 -3 -5 -1 -11 4 -14 5 -4 8 2 7 11 -2 9
-8 18 -15 19 -6 1 -7 0 -1 -3z"/>
<path d="M955 4470 c3 -5 8 -10 11 -10 2 0 4 5 4 10 0 6 -5 10 -11 10 -5 0 -7
-4 -4 -10z"/>
<path d="M939 4418 c-8 -27 -5 -35 12 -31 25 7 33 20 18 29 -8 4 -9 3 -5 -4 4
-7 1 -12 -9 -12 -9 0 -13 5 -10 10 3 6 4 10 1 10 -3 0 -6 -1 -7 -2z"/>
<path d="M6041 4393 c-15 -13 -18 -22 -11 -33 8 -12 10 -12 10 -1 0 10 3 11
13 2 10 -8 14 -7 14 4 0 7 -3 14 -6 13 -20 -2 -22 4 -5 17 10 8 16 15 13 15
-4 0 -16 -8 -28 -17z"/>
<path d="M6072 3898 c-17 -17 -15 -28 6 -27 11 0 12 2 4 6 -10 4 -10 8 -1 19
14 17 8 19 -9 2z"/>
<path d="M925 3800 c3 -5 1 -10 -6 -10 -7 0 -10 -2 -7 -5 8 -9 38 6 32 16 -3
5 -10 9 -15 9 -6 0 -7 -4 -4 -10z"/>
<path d="M6070 3769 c0 -5 5 -7 10 -4 6 3 10 8 10 11 0 2 -4 4 -10 4 -5 0 -10
-5 -10 -11z"/>
<path d="M924 3722 c9 -18 21 -30 27 -26 7 4 5 10 -3 17 -7 7 -19 19 -27 27
-8 10 -7 3 3 -18z"/>
<path d="M6056 3513 c-6 -14 -5 -15 5 -6 7 7 10 15 7 18 -3 3 -9 -2 -12 -12z"/>
<path d="M968 3493 c6 -2 10 -9 6 -14 -3 -5 1 -9 8 -9 9 0 9 -3 -2 -10 -8 -5
-10 -10 -4 -10 6 0 14 3 17 6 9 10 -12 44 -26 43 -9 0 -9 -2 1 -6z"/>
<path d="M6009 3468 c-6 -20 -5 -38 2 -49 7 -10 8 -6 5 13 -3 15 1 29 7 32 9
3 9 5 0 5 -7 1 -13 0 -14 -1z"/>
<path d="M6033 3435 c0 -8 4 -12 9 -9 5 3 6 10 3 15 -9 13 -12 11 -12 -6z"/>
<path d="M1134 2989 c-3 -6 -1 -15 6 -19 9 -5 9 -9 1 -13 -8 -4 -8 -5 0 -3 14
3 21 34 9 41 -5 3 -12 0 -16 -6z"/>
<path d="M5886 2982 c-3 -5 1 -9 9 -9 8 0 12 4 9 9 -3 4 -7 8 -9 8 -2 0 -6 -4
-9 -8z"/>
<path d="M5850 2939 c0 -5 5 -7 10 -4 6 3 10 8 10 11 0 2 -4 4 -10 4 -5 0 -10
-5 -10 -11z"/>
<path d="M1162 2904 c10 -10 20 -15 24 -12 3 4 -5 12 -18 18 -22 12 -22 12 -6
-6z"/>
<path d="M1234 2755 c2 -32 21 -52 29 -31 4 11 1 13 -11 9 -14 -6 -15 -4 -4 9
10 12 10 17 -1 27 -11 9 -14 6 -13 -14z"/>
<path d="M1255 2689 c-4 -6 -5 -12 -2 -15 2 -3 7 2 10 11 7 17 1 20 -8 4z"/>
<path d="M1450 2400 c0 -5 5 -10 11 -10 5 0 7 5 4 10 -3 6 -8 10 -11 10 -2 0
-4 -4 -4 -10z"/>
<path d="M5510 2406 c0 -2 7 -7 16 -10 8 -3 12 -2 9 4 -6 10 -25 14 -25 6z"/>
<path d="M5510 2380 c0 -5 5 -10 11 -10 5 0 7 5 4 10 -3 6 -8 10 -11 10 -2 0
-4 -4 -4 -10z"/>
<path d="M1730 2079 c0 -5 5 -7 10 -4 6 3 10 8 10 11 0 2 -4 4 -10 4 -5 0 -10
-5 -10 -11z"/>
<path d="M1864 1959 c-4 -7 -3 -10 4 -6 5 4 18 4 27 1 13 -6 14 -9 3 -16 -10
-8 -9 -9 3 -5 16 5 51 -26 43 -37 -2 -3 -1 -4 3 -1 10 8 13 36 3 30 -9 -6 -32
19 -25 27 3 2 -1 5 -7 5 -7 0 -20 4 -29 7 -10 4 -20 2 -25 -5z"/>
<path d="M5101 1962 c-1 -8 -6 -10 -13 -6 -10 5 -10 4 -1 -6 15 -16 28 -8 20
12 -4 11 -6 11 -6 0z"/>
<path d="M2013 1815 c0 -8 4 -12 9 -9 5 3 6 10 3 15 -9 13 -12 11 -12 -6z"/>
<path d="M2086 1763 c-6 -14 -5 -15 5 -6 7 7 10 15 7 18 -3 3 -9 -2 -12 -12z"/>
<path d="M2110 1740 c0 -5 5 -10 11 -10 5 0 7 5 4 10 -3 6 -8 10 -11 10 -2 0
-4 -4 -4 -10z"/>
<path d="M2151 1713 c7 -12 15 -20 18 -17 3 2 -3 12 -13 22 -17 16 -18 16 -5
-5z"/>
<path d="M2294 1629 c-3 -6 -3 -13 0 -16 3 -4 6 0 6 7 0 10 4 9 13 -3 7 -10
17 -14 25 -9 9 6 6 12 -12 20 -17 8 -27 8 -32 1z"/>
<path d="M2370 1580 c0 -5 5 -10 11 -10 5 0 7 5 4 10 -3 6 -8 10 -11 10 -2 0
-4 -4 -4 -10z"/>
<path d="M4625 1581 c-3 -5 -2 -12 3 -15 5 -3 9 1 9 9 0 17 -3 19 -12 6z"/>
<path d="M2450 1479 c0 -5 5 -7 10 -4 6 3 10 8 10 11 0 2 -4 4 -10 4 -5 0 -10
-5 -10 -11z"/>
<path d="M4475 1480 c-3 -5 -1 -10 4 -10 6 0 11 5 11 10 0 6 -2 10 -4 10 -3 0
-8 -4 -11 -10z"/>
<path d="M4496 1462 c-3 -5 1 -9 9 -9 8 0 12 4 9 9 -3 4 -7 8 -9 8 -2 0 -6 -4
-9 -8z"/>
<path d="M2600 1410 c-7 -13 -7 -21 0 -25 6 -4 10 -3 9 2 -4 22 2 32 16 27 8
-4 15 -4 15 -1 0 16 -31 14 -40 -3z"/>
<path d="M4375 1410 c-3 -5 -5 -10 -3 -11 33 -8 38 -7 27 7 -14 17 -16 17 -24
4z"/>
<path d="M4310 1339 c0 -5 5 -7 10 -4 6 3 10 8 10 11 0 2 -4 4 -10 4 -5 0 -10
-5 -10 -11z"/>
<path d="M2676 1318 c3 -4 11 -5 19 -1 21 7 19 12 -4 10 -11 0 -18 -5 -15 -9z"/>
<path d="M2746 1303 c-6 -14 -5 -15 5 -6 7 7 10 15 7 18 -3 3 -9 -2 -12 -12z"/>
<path d="M4195 1301 c-3 -6 -1 -11 6 -11 9 0 7 -4 -3 -12 -12 -10 -13 -18 -7
-33 9 -19 9 -18 5 3 -4 20 5 27 28 23 5 -1 3 6 -4 16 -8 10 -15 19 -16 21 -1
2 -5 -1 -9 -7z"/>
<path d="M4124 1213 c2 -10 6 -17 10 -16 15 3 16 11 2 22 -12 10 -14 9 -12 -6z"/>
<path d="M2875 1190 c-16 -7 -17 -9 -3 -9 9 -1 20 4 23 9 7 11 7 11 -20 0z"/>
<path d="M4090 1158 c0 -6 3 -8 7 -5 3 4 12 -1 20 -11 13 -15 13 -15 3 6 -11
23 -30 30 -30 10z"/>
<path d="M4016 1027 c3 -10 9 -15 12 -12 3 3 0 11 -7 18 -10 9 -11 8 -5 -6z"/>
<path d="M3947 947 c3 -4 -1 -14 -7 -22 -9 -11 -9 -15 -1 -15 6 0 11 5 11 11
0 5 5 7 12 3 6 -4 8 -3 4 4 -3 6 1 15 11 20 14 9 13 10 -9 9 -14 -1 -24 -6
-21 -10z"/>
<path d="M3046 910 c-19 -6 -19 -7 1 -12 25 -7 53 6 31 14 -7 3 -22 2 -32 -2z"/>
<path d="M3885 810 c-3 -6 1 -7 9 -4 18 7 21 14 7 14 -6 0 -13 -4 -16 -10z"/>
<path d="M3874 773 c3 -16 16 -22 16 -8 0 3 0 10 0 15 0 6 -4 10 -9 10 -5 0
-8 -8 -7 -17z"/>
<path d="M3220 545 c-10 -12 -10 -15 2 -15 8 0 15 7 15 15 0 8 -1 15 -2 15 -2
0 -8 -7 -15 -15z"/>
<path d="M3611 276 c-10 -11 -9 -14 1 -12 14 2 23 15 15 22 -2 2 -10 -2 -16
-10z"/>
<path d="M3606 222 c-3 -5 1 -9 9 -9 8 0 12 4 9 9 -3 4 -7 8 -9 8 -2 0 -6 -4
-9 -8z"/>
</g>
</svg>
